<svg xmlns="http://www.w3.org/2000/svg" xmlns:xlink="http://www.w3.org/1999/xlink" width="393" height="247" viewBox="0 0 393 247">
    <defs>
        <linearGradient id="a" x1="90.321%" x2="1.255%" y1="96.693%" y2="0%">
            <stop offset="0%" stop-color="#F0843D"/>
            <stop offset="56.483%" stop-color="#6D3DF0"/>
            <stop offset="100%" stop-color="#7950F1" stop-opacity=".792"/>
        </linearGradient>
        <linearGradient id="b" x1="340.495%" x2="818.359%" y1="125.192%" y2="14.046%">
            <stop offset="0%" stop-color="#0BF98B"/>
            <stop offset="100%" stop-color="#2EBFFB"/>
        </linearGradient>
        <linearGradient id="e" x1="47.999%" x2="40.308%" y1="106.214%" y2="8.226%">
            <stop offset="0%" stop-color="#484357"/>
            <stop offset="100%" stop-color="#383051"/>
        </linearGradient>
        <path id="c" d="M392.97 228.52c0 7.918-6.62 14.383-14.531 14.383H14.53c-8.072 0-14.53-6.465-14.53-14.384V14.383C0 6.464 6.62 0 14.53 0h363.747c8.073 0 14.53 6.464 14.53 14.383V228.52h.162z"/>
        <filter id="d" width="171.3%" height="217.7%" x="-35.6%" y="-41.2%" filterUnits="objectBoundingBox">
            <feOffset dy="40" in="SourceAlpha" result="shadowOffsetOuter1"/>
            <feGaussianBlur in="shadowOffsetOuter1" result="shadowBlurOuter1" stdDeviation="40"/>
            <feColorMatrix in="shadowBlurOuter1" result="shadowMatrixOuter1" values="0 0 0 0 0.0509258504 0 0 0 0 0.155783535 0 0 0 0 0.261585884 0 0 0 0.805112092 0"/>
            <feOffset dy="4" in="SourceAlpha" result="shadowOffsetOuter2"/>
            <feColorMatrix in="shadowOffsetOuter2" result="shadowMatrixOuter2" values="0 0 0 0 0.19078974 0 0 0 0 0.198723783 0 0 0 0 0.373272747 0 0 0 0.191434556 0"/>
            <feOffset dy="2" in="SourceAlpha" result="shadowOffsetOuter3"/>
            <feColorMatrix in="shadowOffsetOuter3" result="shadowMatrixOuter3" values="0 0 0 0 0.805004105 0 0 0 0 0.958944515 0 0 0 0 0.915177144 0 0 0 0.286514946 0"/>
            <feMerge>
                <feMergeNode in="shadowMatrixOuter1"/>
                <feMergeNode in="shadowMatrixOuter2"/>
                <feMergeNode in="shadowMatrixOuter3"/>
            </feMerge>
        </filter>
        <linearGradient id="f" x1="58.724%" x2="76.409%" y1="79.375%" y2="26.627%">
            <stop offset="0%" stop-color="#35F6E1"/>
            <stop offset="100%" stop-color="#14E1A8"/>
        </linearGradient>
    </defs>
    <g fill="none" fill-rule="evenodd">
        <path fill="url(#a)" d="M0 420h1971v657H0z" transform="translate(-453 -306)"/>
        <path stroke="url(#b)" stroke-dasharray="1,20" stroke-linecap="round" stroke-width="5" d="M1.48 68.502V.498" transform="translate(146 242)"/>
        <g>
            <mask id="g" fill="#fff">
                <use xlink:href="#c"/>
            </mask>
            <use fill="#000" filter="url(#d)" xlink:href="#c"/>
            <use fill="url(#e)" xlink:href="#c"/>
            <path fill="url(#f)" d="M229.42-25.211c99.615 142.38 56.185 306.9-94.125 300.76l312.567-4.849-2.744-293.81-215.698-2.101z" mask="url(#g)"/>
            <g fill="#14E1A8" transform="translate(37.429 28.038)">
                <ellipse cx="36.389" cy="36.865" opacity=".902" rx="36.389" ry="36.865"/>
                <ellipse cx="73.817" cy="36.346" opacity=".699" rx="25.992" ry="25.962"/>
            </g>
            <g fill="#F4F5F5">
                <path d="M330.972 219.954c0-1.616 1.13-2.748 2.907-2.748 1.13 0 1.776.485 2.098.97l-.968.808c-.323-.323-.646-.646-1.13-.646-.808 0-1.453.646-1.453 1.454 0 .97.645 1.616 1.453 1.616.484 0 .807-.161 1.13-.646l.968.808c-.322.485-.968.97-2.098.97-1.776.161-2.907-.97-2.907-2.586zM336.946 222.54v-7.273h1.453v7.273zM339.368 219.954c0-1.616 1.13-2.748 2.906-2.748 1.13 0 1.776.485 2.099.97l-.969.808c-.323-.323-.646-.646-1.13-.646-.807 0-1.453.646-1.453 1.454 0 .97.646 1.616 1.453 1.616.484 0 .807-.161 1.13-.646l.969.808c-.323.485-.969.97-2.099.97-1.776.161-2.906-.97-2.906-2.586zM345.019 219.954c0-1.455 1.13-2.748 2.906-2.748 1.776 0 2.906 1.293 2.906 2.748 0 1.454-1.13 2.747-2.906 2.747-1.938 0-2.906-1.293-2.906-2.747zm4.197 0c0-.808-.484-1.455-1.453-1.455-.968 0-1.453.647-1.453 1.455s.485 1.616 1.453 1.616c.969 0 1.453-.808 1.453-1.616zM351.638 222.54v-5.334h1.453v.647c.323-.485 1.13-.808 1.776-.808v1.293h-.323c-.484 0-1.13.323-1.291.646v3.556h-1.615zM357.127 221.893v2.748h-1.453v-7.273h1.453v.647c.485-.485.97-.809 1.615-.809 1.453 0 2.422.97 2.422 2.748 0 1.778-.97 2.747-2.422 2.747-.646 0-1.13-.323-1.615-.808zm2.584-1.94c0-.969-.485-1.454-1.292-1.454-.484 0-.969.324-1.292.647v1.94c.162.322.808.646 1.292.646.807-.324 1.292-.97 1.292-1.778zM362.132 221.732c0-.485.485-.808.969-.808s.969.484.969.808c0 .484-.485.808-.969.808s-.969-.324-.969-.808zM365.038 222.54v-5.334h1.453v.647c.323-.485 1.13-.808 1.776-.808v1.293h-.322c-.485 0-1.13.323-1.292.646v3.556h-1.615zM372.788 222.54v-.647c-.323.485-.969.808-1.937.808-1.13 0-1.776-.646-1.776-1.616v-3.717h1.453v3.232c0 .808.323.97.968.97.485 0 .97-.323 1.292-.646v-3.556h1.453v5.333h-1.453v-.161z"/>
            </g>
            <g fill="#E7E7E4">
                <path d="M41.685 153.206h3.127V141.05h-3.127c-.24 0-.48-.12-.721-.361-.24-.241-.361-.482-.361-.723 0-.24.12-.481.36-.722.241-.24.482-.36.722-.36h5.17v14.322H48.9v-4.333c0-.24.12-.481.36-.722.241-.24.482-.36.722-.36s.481.12.722.36c.24.24.36.482.36.722v5.417c0 .24-.12.481-.36.722-.241.24-.481.361-.722.361h-8.417c-.24 0-.481-.12-.722-.361-.24-.24-.36-.481-.36-.722s.12-.482.36-.722c.361-.241.602-.362.842-.362zM52.988 140.93v-.843c0-.241.12-.482.36-.722.241-.241.482-.362.722-.362h9.38v6.38c0 .36-.12.602-.361.842l-3.848 3.25v4.815c0 .24-.12.481-.36.722-.241.24-.482.361-.722.361s-.481-.12-.722-.361c-.24-.24-.36-.481-.36-.722v-5.176c0-.361.12-.722.36-.963l3.848-3.25v-3.851h-6.253c-.12.601-.48.842-1.082.842-.24 0-.48-.12-.721-.36a.92.92 0 0 1-.24-.603zM68.86 153.206h4.81v-5.055h-6.253v-9.268h7.335c.24 0 .481.12.722.361.24.24.36.482.36.722 0 .241-.12.482-.36.723-.24.24-.481.36-.722.36h-5.17v5.056h4.208c.602 0 1.083.24 1.443.602.361.36.602.842.602 1.444v5.055c0 .602-.24 1.084-.602 1.445a1.99 1.99 0 0 1-1.443.602h-4.81c-.48 0-.841-.12-1.322-.361l-1.563-.602c-.361-.12-.601-.482-.601-.963 0-.24.12-.482.24-.722.24-.241.36-.361.722-.361.24 0 .48.12.721.24l1.323.602c.12.12.24.12.36.12zM78.72 138.883h1.083c.24 0 .48.12.721.361.24.24.36.482.36.722 0 .241-.12.482-.36.723-.24.24-.48.36-.721.36v6.861h7.335c.24 0 .48.12.721.362.24.24.36.481.36.722v5.416c0 .24-.12.482-.36.722-.24.241-.481.361-.721.361H78.84c-.24 0-.481-.12-.722-.36-.24-.241-.36-.482-.36-.723v-14.444c0-.24.12-.481.36-.722.12-.24.36-.36.601-.36zm1.083 11.074v3.25h6.252v-3.25h-6.252zM102.288 153.206v-5.055c0-.602.24-1.083.602-1.444.36-.361.962-.602 1.442-.602v-6.139c0-.24.12-.481.241-.722.24-.24.48-.36.721-.36h4.209c.24 0 .481.12.721.36s.361.482.361.722v6.139c.601 0 1.082.24 1.443.602.36.36.601.842.601 1.444v5.055c0 .602-.24 1.084-.6 1.445a1.99 1.99 0 0 1-1.444.602h-6.253a1.99 1.99 0 0 1-1.442-.602 1.994 1.994 0 0 1-.602-1.445zm2.165-5.055v5.055h6.252v-5.055h-6.252zm2.044-7.101v5.055h2.164v-5.055h-2.164zM114.673 140.93v-.843c0-.241.12-.482.361-.722.24-.241.481-.362.722-.362h9.379v6.38c0 .36-.12.602-.361.842l-3.848 3.25v4.815c0 .24-.12.481-.36.722-.241.24-.482.361-.722.361s-.481-.12-.721-.361c-.241-.24-.361-.481-.361-.722v-5.176c0-.361.12-.722.36-.963l3.848-3.25v-3.851h-6.252c-.12.601-.481.842-1.083.842-.24 0-.48-.12-.721-.36a.92.92 0 0 1-.24-.603zM128.02 138.883h1.083c.24 0 .48.12.721.361.24.24.361.482.361.722 0 .241-.12.482-.36.723-.241.24-.482.36-.722.36v6.861h7.335c.24 0 .48.12.721.362.24.24.36.481.36.722v5.416c0 .24-.12.482-.36.722-.24.241-.48.361-.721.361h-8.297c-.24 0-.481-.12-.722-.36-.24-.241-.36-.482-.36-.723v-14.444c0-.24.12-.481.36-.722.12-.24.361-.36.602-.36zm1.083 11.074v3.25h6.253v-3.25h-6.253zM140.406 153.206h3.126V141.05h-3.126c-.24 0-.481-.12-.722-.361-.24-.241-.36-.482-.36-.723 0-.24.12-.481.36-.722.24-.24.481-.36.722-.36h5.17v14.322h2.044v-4.333c0-.24.12-.481.361-.722.24-.24.481-.36.722-.36.24 0 .48.12.721.36.24.24.36.482.36.722v5.417c0 .24-.12.481-.36.722-.24.24-.48.361-.721.361h-8.417c-.241 0-.481-.12-.722-.361-.24-.24-.36-.481-.36-.722s.12-.482.36-.722c.24-.241.481-.362.842-.362zM167.581 153.206h4.81v-5.055h-6.253v-9.268h7.335c.24 0 .48.12.721.361.24.24.361.482.361.722 0 .241-.12.482-.36.723-.241.24-.482.36-.722.36h-5.17v5.056h4.208c.601 0 1.082.24 1.443.602.36.36.601.842.601 1.444v5.055c0 .602-.24 1.084-.601 1.445a1.99 1.99 0 0 1-1.443.602h-4.81c-.48 0-.841-.12-1.322-.361l-1.564-.602c-.36-.12-.6-.482-.6-.963 0-.24.12-.482.24-.722.24-.241.36-.361.721-.361.24 0 .481.12.722.24l1.322.602c0 .12.12.12.361.12zM182.612 154.29v-4.333h-6.253v-9.99c0-.241.12-.482.36-.723.241-.24.482-.36.722-.36s.481.12.721.36c.241.24.361.482.361.722v7.944h4.089v-6.018c0-.24.12-.481.36-.722.24-.24.481-.361.722-.361.24 0 .48.12.721.361.24.24.36.481.36.722v6.018c.241 0 .482.12.722.362.24.24.361.481.361.722 0 .24-.12.481-.36.722-.241.24-.482.361-.722.361v4.333c0 .24-.12.482-.36.722-.241.241-.482.361-.722.361s-.481-.12-.722-.36c-.36-.362-.36-.602-.36-.843zM199.205 141.05v3.851c0 .963-.24 1.685-.841 2.167a2.82 2.82 0 0 1 .841 2.046v4.092c0 .602-.24 1.084-.601 1.445-.36.361-.962.602-1.443.602h-7.335c-.24 0-.48-.12-.721-.361-.24-.241-.361-.482-.361-.723 0-.24.12-.481.36-.722.241-.24.482-.36.722-.36h7.335v-4.093c0-.241-.12-.482-.36-.722-.241-.241-.482-.362-.722-.362h-4.209c-.24 0-.48-.12-.721-.24-.24-.241-.36-.482-.36-.722 0-.241.12-.482.36-.723.24-.24.48-.36.721-.36h4.209c.24 0 .48-.121.721-.362.24-.24.361-.481.361-.722v-3.731h-7.455c-.24 0-.481-.12-.722-.361-.24-.241-.36-.482-.36-.723 0-.24.12-.481.36-.722.241-.24.481-.36.722-.36h7.455c.601 0 1.082.24 1.443.6.36.482.601.964.601 1.566zM201.97 153.206h3.127V141.05h-3.126c-.24 0-.481-.12-.722-.361-.24-.241-.36-.482-.36-.723 0-.24.12-.481.36-.722.24-.24.481-.36.722-.36h5.17v14.322h2.045v-4.333c0-.24.12-.481.36-.722.24-.24.481-.36.722-.36.24 0 .48.12.721.36.24.24.36.482.36.722v5.417c0 .24-.12.481-.36.722-.24.24-.48.361-.721.361h-8.417c-.24 0-.481-.12-.722-.361-.24-.24-.36-.481-.36-.722s.12-.482.36-.722c.36-.241.601-.362.842-.362zM225.659 153.206v-5.055c0-.602.24-1.083.601-1.444s.962-.602 1.443-.602v-6.139c0-.24.12-.481.24-.722.241-.24.482-.36.722-.36h4.209c.24 0 .48.12.721.36.24.24.36.482.36.722v6.139c.602 0 1.083.24 1.444.602.36.36.601.842.601 1.444v5.055c0 .602-.24 1.084-.601 1.445a1.99 1.99 0 0 1-1.443.602h-6.253a1.99 1.99 0 0 1-1.443-.602c-.48-.361-.601-.843-.601-1.445zm2.044-5.055v5.055h6.253v-5.055h-6.253zm2.044-7.101v5.055h2.165v-5.055h-2.165zM247.303 155.253h-1.082c-.24 0-.481-.12-.722-.361-.24-.241-.36-.482-.36-.723 0-.24.12-.481.36-.722.24-.24.481-.36.722-.36v-6.862h-7.335c-.24 0-.481-.12-.722-.36-.24-.242-.36-.482-.36-.723v-5.416c0-.241.12-.482.36-.723.24-.24.481-.36.722-.36h8.297c.24 0 .48.12.721.36.24.241.36.482.36.723v14.564c0 .24-.12.481-.36.722 0 .12-.24.24-.601.24zm-.962-10.954v-3.25h-6.253v3.25h6.253zM259.808 155.373h-9.379v-7.101c0-.602.24-1.084.602-1.445a1.99 1.99 0 0 1 1.442-.602h6.253v-5.175h-7.455c-.24 0-.601-.12-.721-.361-.24-.241-.24-.482-.24-.723 0-.24.12-.481.24-.722.24-.24.48-.36.721-.36h7.455c.601 0 1.082.24 1.443.6.36.362.601.843.601 1.445v5.056c0 .601-.24 1.083-.6 1.444-.362.361-.963.602-1.444.602h-6.253v5.055h7.335c.24 0 .481.12.722.361.24.24.36.482.36.722 0 .241-.12.482-.36.723-.24.36-.481.481-.722.481zM272.073 155.373h-9.379v-7.101c0-.602.24-1.084.601-1.445a1.99 1.99 0 0 1 1.443-.602h6.253v-5.175h-7.455c-.24 0-.601-.12-.721-.361-.241-.241-.241-.482-.241-.723 0-.24.12-.481.24-.722.241-.24.481-.36.722-.36h7.455c.601 0 1.082.24 1.443.6.36.362.601.843.601 1.445v5.056c0 .601-.24 1.083-.601 1.444-.36.361-.962.602-1.443.602h-6.253v5.055h7.335c.24 0 .481.12.722.361.24.24.36.482.36.722 0 .241-.12.482-.36.723-.12.36-.361.481-.722.481z"/>
            </g>
            <rect width="105.988" height="12.462" x="40.548" y="183.808" fill="#FFF" rx="3"/>
            <rect width="63.421" height="12.462" x="40.548" y="209.769" fill="#14E1A8" opacity=".641" rx="3"/>
            <circle cx="273.5" cy="86.5" r="27.5" fill="#1D294A" fill-opacity=".299" stroke="#FFF" stroke-opacity=".704" stroke-width="2"/>
        </g>
    </g>
</svg>
