<svg xmlns="http://www.w3.org/2000/svg" xmlns:xlink="http://www.w3.org/1999/xlink" width="101" height="68" viewBox="0 0 101 68">
    <defs>
        <path id="a" d="M59.956 6.91c-2.991-1.419-7.702-1.147-10.512.6L17.54 27.34s-15.951 2.963-17 4C-.508 32.38.292 37.358.292 37.358.43 38.453 1.304 39.8 2.26 40.373l33.134 19.88c2.843 1.706 7.45 1.724 10.3.035L92.82 32.36c.95-.563 1.756-1.917 1.794-3.016 0 0 .262-5.809-.074-6.004-.335-.195-34.584-16.432-34.584-16.432z"/>
        <path id="b" d="M59.187 2.016C56.322.35 51.677.345 48.816 2L2.184 29c-2.863 1.657-2.887 4.39-.05 6.105l32.733 19.792c2.835 1.714 7.438 1.729 10.292.027L91.84 27.077c2.85-1.7 2.832-4.43-.028-6.093L59.187 2.016z"/>
    </defs>
    <g fill="none" fill-rule="evenodd">
        <g transform="translate(3 3)">
            <use fill="#FFF" xlink:href="#a"/>
            <path stroke="#6E67B7" stroke-width="3" d="M16.988 25.919L48.652 6.235c3.244-2.016 8.496-2.317 11.946-.681l1.487.705a53050.177 53050.177 0 0 1 15.807 7.498l.03.014c11.576 5.494 17.164 8.152 17.372 8.274.44.255.61.557.732.942.045.14.074.284.097.446.033.225.054.502.068.837.022.545.025 1.254.013 2.093a101.609 101.609 0 0 1-.091 3.034c-.056 1.61-1.139 3.43-2.528 4.254L46.458 61.578c-3.323 1.97-8.52 1.95-11.837-.039L1.487 41.66c-1.348-.81-2.489-2.56-2.676-4.063-.01-.066-.028-.183-.05-.34-.036-.26-.072-.546-.106-.851-.08-.72-.133-1.435-.15-2.112-.046-1.906.153-3.2.98-4.018.695-.687 2.729-1.258 7.016-2.22.693-.156 1.428-.316 2.2-.48a348.492 348.492 0 0 1 7.827-1.57l.46-.086z"/>
        </g>
        <g transform="translate(3 3)">
            <mask id="c" fill="#fff">
                <use xlink:href="#b"/>
            </mask>
            <use fill="#FFF" xlink:href="#b"/>
            <path stroke="#6E67B7" stroke-width="3" d="M59.94.719l32.627 18.969c3.85 2.238 3.872 6.394.043 8.677L45.927 56.211c-3.328 1.985-8.525 1.97-11.837-.031L1.357 36.388c-3.811-2.305-3.776-6.458.076-8.687L48.064.703c3.328-1.926 8.548-1.92 11.877.016z"/>
            <path fill="#14E1A8" d="M3.546 18.317L74.223 19.5l8.182 13.165-71.72-.558z" mask="url(#c)" transform="rotate(-33 42.975 25.491)"/>
        </g>
    </g>
</svg>
