<svg xmlns="http://www.w3.org/2000/svg" width="65" height="83" viewBox="0 0 65 83">
    <g fill="none" fill-rule="evenodd">
        <path fill="#6E67B7" d="M64.814 29.628a5.554 5.554 0 0 0-2.781-4.852L19.759.186a1.365 1.365 0 0 0-1.373 0 1.386 1.386 0 0 0-.687 1.197v2.745l-2.36-1.372a1.364 1.364 0 0 0-1.372 0 1.386 1.386 0 0 0-.687 1.198v2.738l-2.355-1.37a1.364 1.364 0 0 0-1.373.001 1.386 1.386 0 0 0-.687 1.2l.002 2.738-2.356-1.37a1.364 1.364 0 0 0-1.372-.002 1.385 1.385 0 0 0-.688 1.195v9.326l-1.051.593a6.866 6.866 0 0 0-3.397 5.922L0 34.032c0 2.436 1.3 4.705 3.394 5.923l1.023.596v14.704c0 .493.261.949.684 1.196l41.636 24.342a15.216 15.216 0 0 0 7.647 2.065 15.102 15.102 0 0 0 7.646-2.063c.321-.187.624-.405.9-.648 1.026-.902 1.841-2.145 1.844-3.53.006-2.4.038-44.084.04-46.989zM2.747 34.033l.002-9.108c0-1.307.63-2.534 1.669-3.294v2.712c0 .489.256.941.673 1.19l8.194 4.886V42.61l-6.807-4.056-1.71-.995a4.09 4.09 0 0 1-2.021-3.527zM62.044 76.02c-.003.33-.052.661-.172.969a2.765 2.765 0 0 1-1.215 1.408 12.387 12.387 0 0 1-6.272 1.693 12.48 12.48 0 0 1-6.271-1.691L7.164 54.458v-12.28l6.795 4.048a1.365 1.365 0 0 0 1.61-.155 1.44 1.44 0 0 0 .462-1.082V29.63c0-.489-.256-.941-.674-1.19l-8.193-4.886V11.48l39.574 23a15.236 15.236 0 0 0 7.65 2.066 15.09 15.09 0 0 0 4.848-.797c.966-.324 1.906-.75 2.794-1.266l.01-.007c.013 15.27.025 38.287.004 41.545z"/>
        <path fill="#15E1A7" d="M11.614 8.918l41.4 24.075v.709a12.516 12.516 0 0 1-4.903-1.618L11.615 10.86l-.001-1.941zM16.027 6.35l41.402 24.079v2.973c-.549.138-1.106.238-1.668.3v-1.508c0-.494-.262-.951-.687-1.198L16.027 8.289V6.35z"/>
        <path fill="#15E1A7" d="M20.446 3.78L60.659 27.17a2.813 2.813 0 0 1 1.408 2.457 2.812 2.812 0 0 1-1.41 2.458c-.158.093-.32.18-.482.265v-2.72c0-.495-.262-.952-.686-1.199L20.446 5.725V3.779z"/>
    </g>
</svg>
