<svg xmlns="http://www.w3.org/2000/svg" width="46" height="99" viewBox="0 0 46 99">
    <g fill="none" fill-rule="evenodd">
        <path fill="#6E67B7" d="M45.904 34.332L45.9 94.376c0 .563-.302 1.083-.791 1.364l-4.745 2.727a1.586 1.586 0 0 1-1.582 0L.792 76.632A1.574 1.574 0 0 1 0 75.268V15.222c0-.563.302-1.083.791-1.364L24.534.212a1.586 1.586 0 0 1 2.163.576l18.995 32.757c.139.24.212.51.212.787zm-7.913 3.152L19.998 6.46 3.164 16.13V74.36l34.827 20.016V37.484zm4.17-3.728L24.748 3.728l-2.01 1.157L40.152 34.91l2.009-1.154zm.579 3.304l-1.585.91v56.405l1.58-.908.005-56.407z"/>
        <path fill="#6E67B7" d="M17.208 17.94c-.789.453-.794 1.915-.01 3.265.782 1.35 2.057 2.077 2.846 1.623.789-.453.794-1.915.01-3.265-.782-1.35-2.056-2.077-2.846-1.623z"/>
        <path fill="#15E1A7" d="M26.338 59.617c1.328.758 2.557 2.034 3.463 3.594.904 1.56 1.4 3.259 1.395 4.782-.006 1.808-.734 3.26-1.997 3.986-.56.322-1.19.481-1.857.481-.838 0-1.731-.252-2.609-.752-1.328-.758-2.558-2.034-3.463-3.594-2.088-3.601-1.83-7.37.602-8.768 1.262-.726 2.89-.627 4.466.271z"/>
        <path fill="#FFF" d="M27.06 64.787c-.62-1.07-1.457-1.958-2.295-2.436-.387-.22-.757-.34-1.03-.34a.566.566 0 0 0-.281.063c-.537.309-.734 2.239.557 4.465.62 1.07 1.457 1.958 2.295 2.436.546.311 1.06.42 1.311.277.25-.144.413-.642.415-1.269.003-.962-.351-2.127-.972-3.196z"/>
        <path fill="#15E1A7" d="M19.885 44.81c2.088 3.602 1.83 7.37-.602 8.768a3.69 3.69 0 0 1-1.857.482c-.838 0-1.731-.252-2.609-.753-1.328-.757-2.558-2.034-3.462-3.594-.905-1.56-1.4-3.258-1.396-4.782.006-1.807.734-3.26 1.997-3.986 1.263-.726 2.89-.627 4.466.271 1.328.758 2.558 2.034 3.463 3.595z"/>
        <path fill="#FFF" d="M17.144 46.386c-.62-1.07-1.457-1.958-2.295-2.436-.387-.22-.757-.34-1.03-.34a.565.565 0 0 0-.28.063c-.25.144-.413.642-.416 1.269-.003.961.351 2.126.972 3.196.62 1.07 1.457 1.958 2.295 2.436.546.312 1.06.42 1.31.277.538-.31.735-2.24-.556-4.465z"/>
        <path fill="#15E1A7" d="M13.863 62.94l10.873-14.813a1.587 1.587 0 0 1 2.211-.343 1.57 1.57 0 0 1 .344 2.2L16.418 64.8a1.582 1.582 0 0 1-2.21.342 1.57 1.57 0 0 1-.345-2.2z"/>
    </g>
</svg>
