<svg xmlns="http://www.w3.org/2000/svg" xmlns:xlink="http://www.w3.org/1999/xlink" width="667" height="617" viewBox="0 0 667 617">
    <defs>
        <linearGradient id="a" x1="101.566%" x2="24.933%" y1="0%" y2="108.842%">
            <stop offset="0%" stop-color="#2EF2B8"/>
            <stop offset="100%" stop-color="#2787F6"/>
        </linearGradient>
        <path id="c" d="M56.005 168.273c-1.958-13.104 7.101-22.345 20.257-20.639l415.104 53.838c18.622 2.416 38.358 18.861 44.09 36.76l83.515 260.78c5.728 17.887-4.686 34.606-23.264 37.344l-.75.11s-10.866-17.713-12.021-17.677c-1.156.036-28.473-2.596-32.527-2.828-4.836-.278-41.053-4.203-41.053-4.203L185.03 450.757c-18.455-3.471-38.638-20.593-45.077-38.233L67.105 212.959s-5.925-17.361-8.136-27.69c-2.212-10.33-2.964-16.996-2.964-16.996z"/>
        <filter id="b" width="101.1%" height="103.1%" x="-.5%" y="-.8%" filterUnits="objectBoundingBox">
            <feOffset dy="6" in="SourceAlpha" result="shadowOffsetOuter1"/>
            <feColorMatrix in="shadowOffsetOuter1" values="0 0 0 0 0.333333333 0 0 0 0 0.309803922 0 0 0 0 0.525490196 0 0 0 1 0"/>
        </filter>
        <path id="e" d="M60.345 164.642c-4.45-13.656 3.477-23.174 17.714-21.257l412.448 55.52c18.613 2.505 38.318 19.05 44.006 36.938l82.727 260.151c5.69 17.896-4.67 29.691-23.153 26.345l-409.89-74.214c-18.477-3.345-38.172-20.53-43.993-38.393l-79.86-245.09z"/>
        <filter id="d" width="101.1%" height="103.2%" x="-.5%" y="-.8%" filterUnits="objectBoundingBox">
            <feOffset dy="6" in="SourceAlpha" result="shadowOffsetOuter1"/>
            <feColorMatrix in="shadowOffsetOuter1" values="0 0 0 0 0.839215686 0 0 0 0 0.831372549 0 0 0 0 0.921568627 0 0 0 1 0"/>
        </filter>
        <path id="f" d="M0 217.685L324.493 0l224.384 117.48-299.96 228.183z"/>
        <ellipse id="h" cx="161.493" cy="451.766" rx="16.11" ry="9.79"/>
        <filter id="g" width="106.2%" height="120.4%" x="-3.1%" y="-15.3%" filterUnits="objectBoundingBox">
            <feOffset dy="-2" in="SourceAlpha" result="shadowOffsetOuter1"/>
            <feColorMatrix in="shadowOffsetOuter1" values="0 0 0 0 0.502378668 0 0 0 0 0.47489933 0 0 0 0 0.793659651 0 0 0 0.885926178 0"/>
        </filter>
        <path id="i" d="M53.545 157.133c-2.911-8.924 2.266-15.145 11.57-13.893l438.495 58.97c9.3 1.25 19.15 9.523 21.993 18.456l87.922 276.225c5.697 17.898-4.668 29.697-23.136 26.356L180.23 449.055c-18.474-3.342-38.169-20.517-43.993-38.373L53.545 157.133z"/>
        <filter id="j" width="101.1%" height="101.6%" x="-.3%" y="-1.2%" filterUnits="objectBoundingBox">
            <feOffset dx="3" dy="-3" in="SourceAlpha" result="shadowOffsetOuter1"/>
            <feColorMatrix in="shadowOffsetOuter1" values="0 0 0 0 0.279963089 0 0 0 0 0.233133387 0 0 0 0 0.531223427 0 0 0 0.727496603 0"/>
        </filter>
        <path id="l" d="M2.452 128.38c-1.99-.96-2.15-2.784-.355-4.078L172.902 1.19c1.793-1.293 4.872-1.573 6.867-.63l119.404 56.445c2 .945 2.167 2.768.391 4.06l-170.843 124.25c-1.783 1.296-4.842 1.57-6.832.612L2.452 128.379z"/>
    </defs>
    <g fill="none" fill-rule="evenodd">
        <path stroke="url(#a)" stroke-dasharray="1,20" stroke-linecap="round" stroke-width="5" d="M0 1015l1.052-56.435h451.45a2.062 2.062 0 0 0 2.045-1.995L457 854" transform="translate(-306 -276)"/>
        <use fill="#000" filter="url(#b)" transform="rotate(135 321.507 370.792)" xlink:href="#c"/>
        <use fill="#000" filter="url(#d)" transform="rotate(135 322.32 361.866)" xlink:href="#e"/>
        <path fill="#5F629D" fill-opacity=".701" d="M49 434l326.575-218.966L603 333 304 556z"/>
        <use fill="#BBB6E5" transform="translate(51.082 217.337)" xlink:href="#f"/>
        <g transform="translate(-8 61)">
            <use fill="#000" filter="url(#g)" xlink:href="#h"/>
            <use fill="#9B96D0" xlink:href="#h"/>
        </g>
        <g>
            <g transform="translate(3 -34)">
                <mask id="k" fill="#fff">
                    <use xlink:href="#i"/>
                </mask>
                <g transform="rotate(135 333.911 333.446)">
                    <use fill="#000" filter="url(#j)" xlink:href="#i"/>
                    <use fill="#867DD4" xlink:href="#i"/>
                </g>
                <path fill="#FEFEFE" fill-opacity=".425" d="M363.51 115.828C348.543 125.038-2.605 388.687-2.605 388.687l19.572 47.203 449.009-320.062s-87.5-9.21-102.466 0z" mask="url(#k)" opacity=".473"/>
                <ellipse cx="46.901" cy="389.573" fill="#FFF" fill-opacity=".602" opacity=".7" rx="10.362" ry="6.642"/>
                <ellipse cx="72.078" cy="371.303" fill="#FFF" fill-opacity=".602" opacity=".7" rx="10.362" ry="6.642"/>
                <ellipse cx="97.558" cy="353.882" fill="#FFF" fill-opacity=".602" opacity=".7" rx="10.362" ry="6.642"/>
            </g>
            <path fill="#FFF" fill-opacity=".494" d="M316.811 418.33c-1.48-.74-3.771-.56-5.128.409l-59.576 42.554c-1.352.966-1.25 2.348.231 3.089l10.76 5.379c1.48.74 3.77.56 5.128-.41l59.575-42.553c1.353-.966 1.25-2.348-.23-3.09l-10.76-5.379zM479.28 299.608c-1.545-.595-3.883-.29-5.228.686l-145.96 105.85c-1.343.973-1.256 2.394.21 3.184l9.685 5.214c1.459.786 3.726.62 5.056-.365l145.991-108.1c1.334-.988 1.165-2.27-.383-2.865l-9.371-3.604z" opacity=".6"/>
            <path fill="#CDCCE9" d="M518.424 299.608c-1.545-.595-3.883-.29-5.228.686l-145.96 105.85c-1.342.973-1.256 2.394.21 3.184l9.685 5.214c1.459.786 3.727.62 5.056-.365l145.992-108.1c1.333-.988 1.164-2.27-.383-2.865l-9.372-3.604z" opacity=".643"/>
            <path fill="#FFF" fill-opacity=".494" d="M347.918 428.691c-1.48-.74-3.771-.56-5.128.41l-59.576 42.553c-1.352.966-1.28 2.42.161 3.248l12.595 7.233c1.441.827 3.673.681 4.994-.333l58.009-44.56c1.316-1.012 1.186-2.43-.296-3.171l-10.759-5.38z" opacity=".3"/>
            <g transform="translate(114.374 269.49)">
                <mask id="m" fill="#fff">
                    <use xlink:href="#l"/>
                </mask>
                <use fill="#5B52A5" fill-opacity=".671" xlink:href="#l"/>
                <path stroke="#50E3C2" stroke-width="4" d="M20.025 118.883l56.414-13.815 40.295-37.993 35.69 5.756 64.474 46.052L253.74 80.89l67.927 59.868" mask="url(#m)" opacity=".613" transform="scale(-1 1) rotate(43 0 -329.8)"/>
                <path stroke="#FFF" stroke-width="4" d="M1.127 77.739l71.675 44.613 51.605-19.428 22.936-33.82 29.729 60.443L197.7 99.326l24.268 30.221 71.59-74.834" mask="url(#m)" opacity=".5" transform="rotate(-41 147.343 92.13)"/>
            </g>
            <g transform="translate(331.97 200.412)">
                <ellipse cx="66.2" cy="38.569" fill="#F2F1FE" opacity=".29" rx="66.2" ry="38.569"/>
                <ellipse cx="52.684" cy="30.977" fill="#FFF" opacity=".362" rx="18.684" ry="11.977"/>
                <path fill="#50479C" d="M118.282 35.54s-.24-3.455-18.997-3.455-33.963 10.31-33.963 23.026c0 12.717 8.059 17.27 8.059 17.27" opacity=".359"/>
            </g>
        </g>
        <g transform="rotate(-1 211.288 -17668.878)">
            <circle cx="85.992" cy="120.026" r="85" fill="#5E53BF" fill-opacity=".795" opacity=".909"/>
            <path fill="#14E1A8" d="M132 109.867c0-.616-.327-1.158-.82-1.448l-45.519-26.84a1.615 1.615 0 0 0-.684-.22l-39.821-3.354a1.634 1.634 0 0 0-.953.218 1.68 1.68 0 0 0-.819 1.449v19.68L32.22 119.098c-.218.384-.277.84-.164 1.269.112.428.387.794.763 1.016l10.56 6.226.005 25.875c0 .597.312 1.149.819 1.448l45.51 26.844a1.61 1.61 0 0 0 1.637 0l39.831-23.49a1.68 1.68 0 0 0 .819-1.448v-46.97zm-8.777-2.28l-32.185-2.707L52.16 81.95l32.181 2.712 38.88 22.924zm-40.018 36.814l.005 29.677-8.103-4.78v-22.983l3.232 1.906c.258.152.54.225.817.225.566 0 1.117-.3 1.42-.837l2.017-3.569.612.361zM66.14 157.296l-13.79-8.128v-16.271l13.774 8.122.016 16.277zm-11.054-49.63l-9.45 17.41-3.716-2.19 9.451-17.411 3.715 2.19zm2.837 1.673l3.715 2.19-9.45 17.41-3.717-2.19 9.452-17.41zm3.653 25.136l9.45-17.409 3.716 2.191-9.45 17.408-3.716-2.19zm-2.837-1.673l-3.715-2.19 9.45-17.41 3.716 2.192-9.45 17.408zm9.389 5.536l9.45-17.408 3.715 2.191-9.45 17.408-3.715-2.191zm10.431 6.15l-3.879-2.287 9.45-17.407 4.171 2.46-9.742 17.234zm-31.9-45.654V82.568L88.9 107.481v16.264l-42.241-24.91zm-1.037 3.25l2.913 1.718-9.452 17.41-3.208-1.89 9.747-17.238zm1.033 27.456l2.42 1.426v19.168c0 .597.312 1.15.818 1.448l17.069 10.06a1.61 1.61 0 0 0 1.638 0c.507-.3.818-.852.818-1.45l-.017-17.241 2.432 1.434v22.982l-25.173-14.85-.005-22.977zm39.831 46.47l-.005-32.575a1.68 1.68 0 0 0-.819-1.448l-1.43-.844 4.668-8.258-.004 44.546-2.41-1.422zm5.685 1.42l.004-50.788v-18.31l36.55 3.074-.002 12.364-2.61-4.632a1.634 1.634 0 0 0-1.439-.874 1.61 1.61 0 0 0-.85.244l-28.416 16.756a1.68 1.68 0 0 0-.818 1.449l-.005 33.549c0 .598.312 1.15.818 1.448a1.61 1.61 0 0 0 1.638 0l28.448-16.776a1.68 1.68 0 0 0 .819-1.448l.002-19.139 2.414-1.421.003 22.947L92.17 177.43zm10.346-32.936l-4.053-7.17 25.61-15.101 4.052 7.194-25.61 15.077zm20.518-8.219l-.002 16.246-25.173 14.844.003-24.413 2.636 4.662a1.619 1.619 0 0 0 2.236.613l20.3-11.952z"/>
            <path fill="#FFF" d="M86 109.668a1.67 1.67 0 0 0-.81-1.44L51.43 88.224a1.583 1.583 0 0 0-1.62 0c-.501.297-.81.846-.81 1.44v6.669c0 .594.309 1.143.81 1.44l33.76 20.005a1.586 1.586 0 0 0 1.62 0c.501-.297.81-.846.81-1.44v-6.669zM52.24 95.372v-2.83l30.52 18.086v2.83L52.24 95.372zM96.283 39.172c2.126-1.253 3.303-3.796 3.314-7.161.01-3.159-1.014-6.72-2.886-10.03-1.871-3.308-4.38-5.995-7.066-7.565-2.86-1.672-5.607-1.904-7.733-.65-2.126 1.252-3.303 3.795-3.314 7.16-.01 3.16 1.014 6.721 2.886 10.03 1.871 3.308 4.38 5.995 7.066 7.565 1.646.963 3.254 1.448 4.728 1.448 1.088 0 2.102-.265 3.005-.797zm-13.02-9.265c-3.338-5.902-3.486-12.462-.324-14.326.588-.346 1.255-.51 1.975-.51 3.154 0 7.3 3.154 10.018 7.96 3.338 5.9 3.487 12.461.324 14.325-.587.346-1.255.51-1.975.51-3.154 0-7.3-3.154-10.018-7.96z"/>
            <path fill="#15E1A7" d="M112.375 28.648c-.555-4.272-2.116-8.766-4.514-12.996-3.071-5.414-7.18-9.804-11.567-12.363C91.73.628 87.38.242 84.044 2.203c-.284.166-3.97 2.272-6.32 3.674-2.772 1.665-4.496 4.745-4.989 8.916-.46 3.902.243 8.587 1.98 13.195a.555.555 0 0 0 .007.022l13.779 38.268a1.038 1.038 0 0 0 .971.69c.182 0 .358-.049.513-.139l6.247-3.63c.148-.086.273-.208.363-.355l13.561-22.013c.3-.415.579-.868.827-1.346 1.463-2.825 1.945-6.573 1.392-10.837zm-35.697-1.325a.978.978 0 0 0-.018-.053c-1.629-4.306-2.293-8.648-1.87-12.226.524-4.451 2.487-6.474 4.04-7.387 2.672-1.57 6.29-1.182 10.19 1.091 4.075 2.377 7.912 6.492 10.803 11.589 4.494 7.923 5.733 16.683 3.084 21.796-.203.392-13.19 21.404-13.19 21.404L76.678 27.323zm32.475 11.18C108.947 38.898 94.98 61.5 94.98 61.5l-2.442 1.42s11.953-19.332 12.199-19.805c1.464-2.825 1.945-6.573 1.392-10.837-.555-4.272-2.116-8.766-4.515-12.995-3.07-5.414-7.178-9.804-11.566-12.363-2.13-1.242-4.212-1.988-6.168-2.232.518-.28.931-.506 1.197-.662 2.672-1.57 6.29-1.183 10.189 1.09 4.075 2.376 7.912 6.492 10.803 11.588 4.494 7.924 5.733 16.684 3.084 21.797z"/>
        </g>
    </g>
</svg>
