<?xml version="1.0" encoding="UTF-8" standalone="no"?>
<svg width="553px" height="360px" viewBox="0 0 553 360" version="1.1" xmlns="http://www.w3.org/2000/svg" xmlns:xlink="http://www.w3.org/1999/xlink">
    <!-- Generator: Sketch 44.1 (41455) - http://www.bohemiancoding.com/sketch -->
    <title>Slice</title>
    <desc>Created with Sketch.</desc>
    <defs></defs>
    <g id="Page-1" stroke="none" stroke-width="1" fill="none" fill-rule="evenodd">
        <g id="Slice" transform="translate(-325.000000, -505.000000)" fill-rule="nonzero">
            <g id="Group-2">
                <g id="Canvas">
                    <g id="Laptop-figma">
                        <g id="Page-1">
                            <g id="Isometric">
                                <g id="Laptop">
                                    <g id="Obiem" transform="translate(314.000000, 395.000000)" fill="#554F86">
                                        <g id="Vector">
                                            <g id="path0_fill-link">
                                                <g transform="translate(285.448879, 285.747918) rotate(135.000000) translate(-285.448879, -285.747918) translate(46.948805, 121.247867)">
                                                    <path d="M0.270743084,20.8315064 C-1.70607053,7.73175239 7.35515228,-1.50314047 20.4962063,0.203036063 L363.579113,44.7473138 C382.204118,47.1656146 401.942124,63.6252197 407.663126,81.5077252 L475.317147,292.986091 C481.038149,310.870096 470.527146,326.850101 451.77814,327.722101 C451.77814,327.722101 449.184139,329.916102 434.335134,326.381101 C419.48613,322.8451 422.207131,312.465097 418.77013,312.268097 C414.671128,312.032097 383.972119,308.702096 383.972119,308.702096 L114.149035,257.89808 C95.6970296,254.424079 75.5224234,237.302073 69.0904214,219.663068 L9.10569282,55.1617171 C9.10569282,55.1617171 4.08331126,40.4304125 2.20886068,31.6655098 C0.334417103,22.9006071 0.270743084,20.8315064 0.270743084,20.8315064 Z" id="path0_fill"></path>
                                                </g>
                                            </g>
                                        </g>
                                    </g>
                                    <g id="Ramka" transform="translate(318.000000, 392.000000)" fill="#D6D4EB">
                                        <g id="Vector">
                                            <g id="path1_fill-link">
                                                <g transform="translate(281.675521, 281.661132) rotate(135.000000) translate(-281.675521, -281.661132) translate(45.175448, 121.161082)">
                                                    <path d="M1.23479038,21.5023067 C-3.21057099,7.84501243 4.72604146,-1.67134052 18.9510059,0.245506076 L359.506111,46.1359143 C378.116117,48.6436151 397.811123,65.1854202 403.496125,83.0836257 L470.497146,294.004091 C476.182147,311.902097 465.807144,323.6951 447.331138,320.346099 L110.098034,259.22308 C91.6181284,255.873079 71.9266223,238.686074 66.1157205,220.833068 L1.23479038,21.5023067 Z" id="path1_fill"></path>
                                                </g>
                                            </g>
                                        </g>
                                    </g>
                                    <g id="Shadow-screen" transform="translate(360.000000, 521.000000)" fill-opacity="0.700634" fill="#5F629D">
                                        <g id="Vector">
                                            <g id="path2_fill-link" transform="translate(0.821000, 0.460000)">
                                                <polygon id="path2_fill" points="5.01865e-14 185.799 276.816 6.00085e-15 469.589 100.098 216.146 289.32"></polygon>
                                            </g>
                                        </g>
                                    </g>
                                    <g id="Button" transform="translate(435.000000, 765.000000)" fill="#9B96D0">
                                        <g id="Vector">
                                            <g id="path4_fill-link">
                                                <g transform="translate(0.738000, 0.787000)">
                                                    <path d="M13.655,16.6143 C21.1965,16.6143 27.31,12.8951 27.31,8.30716 C27.31,3.71925 21.1965,0 13.655,0 C6.11356,0 0,3.71925 0,8.30716 C0,12.8951 6.11356,16.6143 13.655,16.6143 Z" id="path4_fill"></path>
                                                </g>
                                            </g>
                                        </g>
                                    </g>
                                </g>
                            </g>
                        </g>
                    </g>
                </g>
            </g>
        </g>
    </g>
</svg>