<svg xmlns="http://www.w3.org/2000/svg" xmlns:xlink="http://www.w3.org/1999/xlink" width="511" height="178" viewBox="0 0 511 178">
    <defs>
        <path id="a" d="M0 3.898c0-1.655 1.183-2.362 2.643-1.579l35.714 19.164c1.46.783 2.643 2.769 2.643 4.415v22.007c0 1.655-1.183 2.362-2.643 1.578L2.643 30.32C1.183 29.536 0 27.551 0 25.905V3.898z"/>
    </defs>
    <g fill="none" fill-rule="evenodd">
        <text fill="#6E67B7" font-family="GothamPro-Bold, Gotham Pro" font-size="34" font-weight="bold" transform="translate(-2)">
            <tspan x="135.62" y="126.687">+</tspan>
        </text>
        <text fill="#6E67B7" font-family="GothamPro-Bold, Gotham Pro" font-size="34" font-weight="bold" transform="translate(-2)">
            <tspan x="284.62" y="126.687">=</tspan>
        </text>
        <g transform="translate(334 .687)">
            <circle cx="88.5" cy="88.5" r="88.5" fill="#14E1A8" opacity=".2"/>
            <g stroke="#15E1A7">
                <path stroke-linecap="round" stroke-width="3" d="M55 44l9.856-4.915c.991-.495 1.893-1.79 1.97-2.886C66.825 36.199 68 29 64 22c-6-9-12-7-12-7l-9 4"/>
                <path fill="#FFF" stroke-width="3" d="M52.57 45c5.233.074 7.457-5.961 4.758-13.481-2.933-7.52-9.077-13.178-13.49-12.637-4.391.542-6.196 6.577-4.156 13.481C41.608 39.267 47.333 44.924 52.57 45zM32 68l35.128 20.491c.482.281.842.064.8-.48C67.928 88.01 66 55 52 47 31 36 32 68 32 68z"/>
                <path stroke-width="3" d="M68 89l11-6s-3-32-17-42"/>
                <path stroke-width="2" d="M39 46l7-4"/>
                <path stroke-width="3" d="M47 45l3 8 4-4M50.207 55.982c-.114-.543-.331-.548-.482-.02L46 69l4 6 4-1-3.793-18.018z"/>
            </g>
            <g stroke="#15E1A7">
                <path stroke-linecap="round" stroke-width="3" d="M97 130l9.856-4.915c.991-.495 1.893-1.79 1.97-2.886 0 0 1.174-7.199-2.826-14.199-6-9-12-7-12-7l-9 4"/>
                <path fill="#FFF" stroke-width="3" d="M94.57 131c5.233.074 7.457-5.961 4.758-13.481-2.933-7.52-9.077-13.178-13.49-12.637-4.391.542-6.196 6.577-4.156 13.481 1.926 6.904 7.651 12.561 12.888 12.636zM74 154l35.128 20.491c.482.281.842.064.8-.48C109.928 174.01 108 141 94 133c-21-11-20 21-20 21z"/>
                <path stroke-width="3" d="M110 175l11-6s-3-32-17-42"/>
                <path stroke-width="2" d="M81 132l7-4"/>
                <path stroke-width="3" d="M89 131l3 8 4-4M92.207 141.982c-.114-.543-.331-.548-.482-.02L88 155l4 6 4-1-3.793-18.018z"/>
            </g>
            <g stroke="#15E1A7">
                <path stroke-linecap="round" stroke-width="3" d="M133 70l9.856-4.915c.991-.495 1.893-1.79 1.97-2.886 0 0 1.174-7.199-2.826-14.199-6-9-12-7-12-7l-9 4"/>
                <path fill="#FFF" stroke-width="3" d="M130.57 71c5.233.074 7.457-5.961 4.758-13.481-2.933-7.52-9.077-13.178-13.49-12.637-4.391.542-6.196 6.577-4.156 13.481 1.926 6.904 7.651 12.561 12.888 12.636zM110 94l35.128 20.491c.482.281.842.064.8-.48C145.928 114.01 144 81 130 73c-21-11-20 21-20 21z"/>
                <path stroke-width="3" d="M146 115l11-6s-3-32-17-42"/>
                <path stroke-width="2" d="M117 72l7-4"/>
                <path stroke-width="3" d="M125 71l3 8 4-4M128.207 81.982c-.114-.543-.331-.548-.482-.02L124 95l4 6 4-1-3.793-18.018z"/>
            </g>
        </g>
        <g transform="translate(184 5.687)">
            <use fill="#FFF" xlink:href="#a"/>
            <path stroke="#15E1A7" stroke-width="3" d="M1.5 3.898v22.007c0 1.097.882 2.572 1.852 3.093l35.714 19.164c.461.247.434.263.434-.257V25.898c0-1.097-.882-2.573-1.852-3.093L1.934 3.641c-.461-.247-.434-.264-.434.257z"/>
        </g>
        <path stroke="#15E1A7" stroke-linecap="round" stroke-width="3" d="M186 8.687l1.604-1.203c1.323-.992 3.584-1.157 5.046-.37l33.7 18.147c1.464.788 2.65 2.77 2.65 4.417v20.006c0 1.106-.81 2.408-1.784 2.895L223 54.687"/>
        <path stroke="#15E1A7" stroke-width="3" d="M208 46.687l9.49 16.134c.282.479.51.42.51-.134V51.954l-10-5.267zM218 62.692c0 .55.392.76.86.48l3.28-1.969c.475-.285.86-.967.86-1.506v-5.01l-5-2v10.005z"/>
        <g stroke="#6E67B7">
            <path stroke-linecap="round" stroke-width="3" d="M215 104.687l9.856-4.915c.991-.494 1.991-1.77 2.165-2.866 0 0 1.979-6.219-3.021-14.219-6-9-12-7-12-7l-9 4"/>
            <path fill="#FFF" stroke-width="3" d="M212.57 105.687c5.233.075 7.457-5.96 4.758-13.481-2.933-7.52-9.077-13.178-13.49-12.636-4.391.541-6.196 6.577-4.156 13.48 1.926 6.904 7.651 12.562 12.888 12.637z"/>
            <path stroke-width="3" d="M192 128.687l35.128 20.492c.482.28.842.064.8-.48 0 0-1.928-33.012-15.928-41.012-21-11-20 21-20 21z"/>
            <path stroke-width="3" d="M228 149.687l11-6s-3-32-17-42"/>
            <path stroke-width="2" d="M199 106.687l7-4"/>
            <path stroke-width="3" d="M207 105.687l3 8 4-4M210.207 116.669c-.114-.542-.331-.547-.482-.02L206 129.688l4 6 4-1-3.793-18.018z"/>
        </g>
        <g>
            <path fill="#6E67B7" d="M73.784 117.39c.44-.253.711-.72.711-1.224 0-.505-.27-.971-.71-1.224L44.44 98.11a1.43 1.43 0 0 0-1.422 0L9.484 117.347c-.44.252-.711.718-.711 1.223 0 .505.27.971.71 1.223l29.34 16.836a1.428 1.428 0 0 0 1.422 0l33.54-19.24zm-60.746 1.18l30.692-17.607 26.5 15.203-30.695 17.608-26.497-15.204z"/>
            <path fill="#15E1A7" d="M62.426 102.828a1.423 1.423 0 0 0 .523 1.941l4.178 2.428a1.408 1.408 0 0 0 1.932-.514 1.426 1.426 0 0 0-.523-1.94l-4.179-2.429a1.408 1.408 0 0 0-1.931.514z"/>
            <path fill="#15E1A7" d="M91.374 111.874c0-.504-.271-.97-.71-1.223L52.935 89.01a1.43 1.43 0 0 0-1.422 0L1.211 117.866c-.44.252-.711.719-.711 1.223v.001l.004 4.812c0 .504.271.97.71 1.222l37.724 21.641a1.428 1.428 0 0 0 1.422 0l50.307-28.855c.44-.253.71-.72.71-1.225l-.003-4.811zm-39.149-20.01l34.884 20.01L39.653 139.1l-34.887-20.01 47.459-27.225zM39.649 143.91L3.347 123.085l-.001-1.548 35.596 20.417a1.43 1.43 0 0 0 1.422 0l48.168-27.633.001 1.55-48.884 28.04z"/>
            <g>
                <path fill="#6E67B7" d="M85.935 48.27l-.002 41.241c0 .387-.204.744-.534.937l-3.197 1.873a1.053 1.053 0 0 1-1.066 0L55.533 77.324a1.085 1.085 0 0 1-.533-.937V35.143c0-.387.203-.744.533-.937l16.001-9.373c.245-.144.536-.183.81-.109.273.075.506.256.647.504l12.801 22.5c.094.165.143.351.143.541zm-5.333 2.164L68.477 29.125l-11.345 6.643v39.994l23.47 13.749V50.434zm2.81-2.56L71.679 27.247l-1.355.795L82.06 48.666l1.354-.793zm.39 2.269l-1.067.625v38.743l1.065-.624.003-38.744z"/>
                <path fill="#6E67B7" d="M66.597 37.01c-.532.311-.535 1.315-.007 2.243.527.927 1.386 1.426 1.918 1.115.532-.312.535-1.316.007-2.243-.527-.928-1.386-1.427-1.918-1.115z"/>
                <path fill="#15E1A7" d="M72.75 65.637c.894.52 1.723 1.397 2.333 2.468.61 1.072.944 2.238.94 3.285-.004 1.241-.494 2.24-1.345 2.738-.377.22-.803.33-1.252.33-.565 0-1.167-.173-1.758-.517-.895-.52-1.724-1.397-2.334-2.468-1.407-2.474-1.233-5.063.406-6.023.85-.498 1.947-.43 3.01.187z"/>
                <path fill="#FFF" d="M73.236 69.187c-.418-.735-.982-1.344-1.547-1.673-.26-.151-.51-.233-.693-.233a.376.376 0 0 0-.19.043c-.362.212-.495 1.538.375 3.067.418.735.982 1.345 1.547 1.673.368.214.715.289.883.19.169-.099.278-.44.28-.871.002-.66-.237-1.46-.655-2.196z"/>
                <path fill="#15E1A7" d="M68.4 55.466c1.408 2.474 1.234 5.063-.405 6.023a2.45 2.45 0 0 1-1.251.33c-.565 0-1.167-.173-1.758-.517-.895-.52-1.724-1.397-2.334-2.468-.61-1.072-.944-2.238-.94-3.285.004-1.241.494-2.24 1.345-2.738.851-.498 1.948-.43 3.01.187.895.52 1.724 1.397 2.334 2.468z"/>
                <path fill="#FFF" d="M66.554 56.548c-.419-.735-.982-1.344-1.547-1.673-.26-.151-.51-.233-.694-.233a.375.375 0 0 0-.19.043c-.168.099-.278.44-.279.871-.002.661.236 1.461.655 2.196.418.735.982 1.345 1.546 1.673.369.214.715.289.884.19.362-.212.495-1.538-.375-3.067z"/>
                <path fill="#15E1A7" d="M64.343 67.92l7.327-10.176a1.056 1.056 0 0 1 1.49-.235c.475.352.58 1.029.232 1.511l-7.328 10.176a1.06 1.06 0 0 1-1.49.235 1.092 1.092 0 0 1-.231-1.512z"/>
            </g>
        </g>
    </g>
</svg>
