<svg xmlns="http://www.w3.org/2000/svg" width="478" height="192" viewBox="0 0 478 192">
    <defs>
        <linearGradient id="a" x1="2.572%" x2="96.795%" y1="100%" y2="0%">
            <stop offset="0%" stop-color="#0BE5F9" stop-opacity=".798"/>
            <stop offset="100%" stop-color="#742EFB"/>
        </linearGradient>
    </defs>
    <g fill="none" fill-rule="evenodd">
        <text fill="#6E67B7" font-family="GothamPro-Bold, Gotham Pro" font-size="34" font-weight="bold" transform="translate(-3)">
            <tspan x="133.62" y="129">+</tspan>
        </text>
        <text fill="#6E67B7" font-family="GothamPro-Bold, Gotham Pro" font-size="34" font-weight="bold" transform="translate(-3)">
            <tspan x="256.62" y="129">=</tspan>
        </text>
        <g transform="translate(304 18)">
            <circle cx="87" cy="87" r="87" fill="#5D88FC" opacity=".2"/>
            <g stroke="#6E67B7" stroke-width="3">
                <path d="M81.215 29s-4.87-7.592-11-8c-6.13-.408-11.297 7.227-12 8-10 11 22 42 22 42s16.2-4.932 19.651-16.475C100.54 52.272 103.215 42 93.215 33c-7-5-12-4-12-4z"/>
                <path fill="#FFF" d="M75.436 35.56s-7-18-17-7 17 45 17 45 13.593-3.507 17.26-13.716c.89-2.476 4.519-9.844 0-16.844-8.731-13.097-17.26-7.44-17.26-7.44z"/>
            </g>
            <g stroke="#15E1A7">
                <path stroke-linecap="round" stroke-width="3" d="M79 123l9.856-4.915c.991-.495 1.893-1.79 1.97-2.886 0 0 1.174-7.199-2.826-14.199-6-9-12-7-12-7l-9 4"/>
                <path fill="#FFF" stroke-width="3" d="M76.57 124c5.233.074 7.457-5.961 4.758-13.481-2.933-7.52-9.077-13.178-13.49-12.637-4.391.542-6.196 6.577-4.156 13.481 1.926 6.904 7.651 12.561 12.888 12.636zM56 147l35.128 20.491c.482.281.842.064.8-.48C91.928 167.01 90 134 76 126c-21-11-20 21-20 21z"/>
                <path stroke-width="3" d="M92 168l11-6s-3-32-17-42"/>
                <path stroke-width="2" d="M63 125l7-4"/>
                <path stroke-width="3" d="M71 124l3 8 4-4M74.207 134.982c-.114-.543-.331-.548-.482-.02L70 148l4 6 4-1-3.793-18.018z"/>
            </g>
        </g>
        <path stroke="#15E1A7" stroke-linecap="round" stroke-width="3" d="M205 125l9.856-4.915c.991-.495 1.885-1.78 1.96-2.887 0 0 1.184-8.198-2.816-14.198-6-9-12-7-12-7l-9 4"/>
        <path fill="#FFF" stroke="#15E1A7" stroke-width="3" d="M202.57 126c5.233.074 7.457-5.961 4.758-13.481-2.933-7.52-9.077-13.178-13.49-12.637-4.391.542-6.196 6.577-4.156 13.481 1.926 6.904 7.651 12.561 12.888 12.636z"/>
        <path stroke="#15E1A7" stroke-width="3" d="M182 149l35.128 20.491c.482.281.842.064.8-.48 0 0-1.928-33.011-15.928-41.011-21-11-20 21-20 21z"/>
        <path stroke="#15E1A7" stroke-width="3" d="M218 170l11-6s-3-32-17-42"/>
        <path stroke="#15E1A7" stroke-width="2" d="M189 127l7-4"/>
        <path stroke="#15E1A7" stroke-width="3" d="M197 126l3 8 4-4"/>
        <path stroke="#6E67B7" stroke-width="3" d="M200.207 136.982c-.114-.543-.331-.548-.482-.02L196 150l4 6 4-1-3.793-18.018z"/>
        <g>
            <path fill="#14E1A8" d="M86.575 107.782c.019-.527-.247-1-.66-1.263L47.592 82.197a1.393 1.393 0 0 0-.582-.207l-34.125-4.065a1.41 1.41 0 0 0-.825.159c-.445.24-.73.703-.747 1.214l-.588 16.831L.54 112.682c-.198.322-.262.71-.178 1.08.084.37.309.69.625.892l8.89 5.642-.768 22.13c-.018.51.234.992.66 1.262l38.314 24.325a1.39 1.39 0 0 0 1.407.05l34.935-18.895c.445-.24.73-.703.747-1.214l1.403-40.172zm-7.476-2.213l-27.581-3.282-32.729-20.776 27.578 3.285 32.732 20.773zm-35.493 30.284l-.883 25.38-6.821-4.33.686-19.656 2.722 1.727c.217.138.456.208.695.216.487.017.969-.223 1.245-.672l1.84-2.992.516.327zm-15.053 10.516l-11.61-7.366.486-13.915 11.596 7.36-.472 13.92zm-8.018-42.778l-8.644 14.606-3.128-1.985 8.644-14.607 3.128 1.986zm2.387 1.516l3.128 1.985-8.643 14.606-3.128-1.985 8.643-14.606zm2.39 21.607l8.642-14.605 3.128 1.986-8.643 14.604-3.128-1.985zm-2.389-1.516l-3.128-1.985 8.643-14.605 3.128 1.985-8.643 14.605zm7.904 5.017l8.642-14.605 3.128 1.986-8.642 14.604-3.128-1.985zm8.782 5.573l-3.266-2.073 8.642-14.604 3.512 2.23-8.888 14.447zM13.556 95.785l.486-13.912 35.56 22.575-.485 13.91-35.561-22.573zm-.99 2.748l2.453 1.557-8.644 14.607-2.7-1.714 8.891-14.45zm.069 23.513l2.037 1.292-.573 16.393c-.018.511.234.993.66 1.264l14.37 9.116a1.39 1.39 0 0 0 1.408.048c.444-.24.729-.704.746-1.215l.5-14.746 2.048 1.3-.686 19.654-21.193-13.455.683-19.651zm32.846 40.938l.968-27.859a1.436 1.436 0 0 0-.66-1.263l-1.205-.765 4.26-6.923-1.335 38.098-2.028-1.288zm4.843 1.386l1.52-43.437.548-15.66L83.714 109l-.372 10.574-2.104-4.04a1.406 1.406 0 0 0-1.21-.79 1.389 1.389 0 0 0-.739.183l-24.923 13.478c-.444.24-.729.703-.747 1.214l-1.006 28.693c-.018.51.234.992.66 1.263a1.39 1.39 0 0 0 1.408.05l24.951-13.495c.444-.24.73-.703.747-1.214l.574-16.368 2.117-1.143-.683 19.625-32.063 17.34zm9.876-27.858l-3.27-6.254 22.462-12.147 3.269 6.275L60.2 136.512zm17.88-6.414l-.487 13.894-22.079 11.94.733-20.879 2.125 4.067a1.396 1.396 0 0 0 1.904.591l17.804-9.613z"/>
            <path fill="#FFF" d="M47.045 106.231a1.428 1.428 0 0 0-.653-1.255L17.973 86.853a1.367 1.367 0 0 0-1.392-.05c-.44.24-.721.7-.739 1.208l-.2 5.704c-.017.508.232.987.654 1.255l28.419 18.124a1.37 1.37 0 0 0 1.392.048c.44-.239.721-.699.739-1.207l.2-5.704zm-28.59-13.24l.085-2.42 25.692 16.384-.084 2.42-25.693-16.384z"/>
            <g>
                <path fill="#6E67B7" d="M69.919 29.477l-.004 51.553c0 .483-.256.93-.67 1.17l-4.023 2.342a1.331 1.331 0 0 1-1.342 0L31.67 65.795a1.355 1.355 0 0 1-.67-1.17V13.068c0-.483.256-.93.67-1.17L51.8.181A1.33 1.33 0 0 1 52.82.046c.344.093.637.32.815.63L69.74 28.801c.117.206.18.439.18.676zm-6.71 2.706L47.955 5.547 33.683 13.85v49.994L63.21 81.029V32.183zm3.536-3.2L51.982 3.2l-1.704.993 14.764 25.78 1.703-.992zm.49 2.836l-1.343.782V81.03l1.34-.78.004-48.43z"/>
                <path fill="#6E67B7" d="M45.59 15.403c-.67.39-.673 1.645-.01 2.804.664 1.159 1.745 1.783 2.414 1.393.669-.39.673-1.644.009-2.803-.664-1.16-1.744-1.783-2.413-1.394z"/>
                <path fill="#15E1A7" d="M53.33 51.187c1.126.65 2.168 1.746 2.936 3.085.767 1.34 1.187 2.798 1.182 4.106-.004 1.552-.622 2.8-1.692 3.422a3.1 3.1 0 0 1-1.575.413c-.71 0-1.468-.216-2.211-.646-1.127-.65-2.17-1.746-2.936-3.085-1.771-3.092-1.552-6.328.51-7.528 1.07-.624 2.45-.539 3.786.233z"/>
                <path fill="#FFF" d="M53.942 55.625c-.526-.919-1.235-1.681-1.946-2.091-.327-.19-.641-.292-.872-.292a.475.475 0 0 0-.24.054c-.455.265-.622 1.922.473 3.834.526.918 1.236 1.68 1.946 2.09.463.268.9.361 1.111.238.212-.123.35-.55.352-1.089.003-.825-.298-1.826-.824-2.744z"/>
                <path fill="#15E1A7" d="M47.859 38.474c1.77 3.091 1.551 6.328-.51 7.528a3.098 3.098 0 0 1-1.575.413c-.71 0-1.467-.217-2.211-.646-1.127-.65-2.17-1.747-2.936-3.086-.767-1.34-1.187-2.798-1.183-4.106.005-1.552.622-2.799 1.693-3.422 1.07-.623 2.45-.538 3.786.233 1.126.65 2.168 1.746 2.936 3.086z"/>
                <path fill="#FFF" d="M45.535 39.826c-.526-.919-1.235-1.68-1.946-2.091-.327-.19-.641-.291-.872-.291a.474.474 0 0 0-.24.053c-.21.123-.349.551-.35 1.09-.003.825.297 1.825.823 2.744.526.918 1.235 1.68 1.946 2.091.463.268.9.361 1.111.238.456-.266.623-1.923-.472-3.834z"/>
                <path fill="#15E1A7" d="M42.754 54.04l9.218-12.72a1.334 1.334 0 0 1 1.874-.293 1.36 1.36 0 0 1 .292 1.89L44.92 55.634a1.336 1.336 0 0 1-1.875.294 1.36 1.36 0 0 1-.291-1.89z"/>
            </g>
        </g>
        <g stroke="url(#a)" stroke-dasharray="1,20" stroke-linecap="round" stroke-width="5" transform="translate(-181 -288)">
            <path d="M3.897 344L1.253 241.016c-.667-25.951 19.843-46.99 45.786-46.99h444.965c29.269 0 52.996-23.73 52.996-53.002V0"/>
        </g>
    </g>
</svg>
