<svg width="553" height="359" viewBox="0 0 553 359" version="1.1" xmlns="http://www.w3.org/2000/svg" xmlns:xlink="http://www.w3.org/1999/xlink">
<title>Screen_Good</title>
<desc>Created using Figma</desc>
<g id="Canvas" transform="translate(490 238)">
<g id="Screen_Good">
<g id="Page 1">
<g id="Isometric">
<g id="Screen">
<g id="Group">
<g id="Plaha">
<g id="Vector 2">
<use xlink:href="#path0_fill" transform="matrix(1 0 0 1 -489.273 -234.925)" fill="#736BB5"/>
</g>
<g id="Vector 2">
<use xlink:href="#path0_fill" transform="matrix(1 0 0 1 -489.273 -237.925)" fill="#867DD4"/>
</g>
<g id="Mask Group">
<mask id="mask0_alpha" mask-type="alpha">
<g id="Vector 2">
<use xlink:href="#path0_fill" transform="matrix(1 0 0 1 -489.273 -237.925)" fill="#867DD4"/>
</g>
</mask>
<g id="Line (Stroke)" opacity="0.2" mask="url(#mask0_alpha)">
<use xlink:href="#path1_fill" transform="matrix(-0.813734 0.581238 -0.581238 -0.813734 -133.75 -228.451)" fill="#FFFFFF"/>
</g>
</g>
</g>
<g id="Oval 5 Copy" opacity="0.7">
<use xlink:href="#path2_fill" transform="translate(-471 -23.9946)" fill="#FFFFFF" fill-opacity="0.60193"/>
</g>
<g id="Oval 5 Copy 2" opacity="0.7">
<use xlink:href="#path3_fill" transform="translate(-449.629 -39.4977)" fill="#FFFFFF" fill-opacity="0.60193"/>
</g>
<g id="Oval 5 Copy 3" opacity="0.7">
<use xlink:href="#path4_fill" transform="translate(-428.002 -54.2806)" fill="#FFFFFF" fill-opacity="0.60193"/>
</g>
</g>
<g id="Data">
<g id="Path 5" opacity="0.6">
<use xlink:href="#path5_fill" transform="translate(-290.153 30.6443)" fill="#FFFFFF" fill-opacity="0.494339"/>
</g>
<g id="Path 5 Copy" opacity="0.6">
<use xlink:href="#path6_fill" transform="translate(-225.656 -69.9878)" fill="#FFFFFF" fill-opacity="0.494339"/>
</g>
<g id="Path 5 Copy 2" opacity="0.64298">
<use xlink:href="#path7_fill" transform="translate(-192.43 -69.9878)" fill="#CDCCE9"/>
</g>
<g id="Path 5" opacity="0.3">
<use xlink:href="#path8_fill" transform="translate(-263.773 39.437)" fill="#FFFFFF" fill-opacity="0.494339"/>
</g>
<g id="Stata">
<g id="Group">
<mask id="mask1_alpha" mask-type="alpha">
<g id="mask 5">
<g id="Vector">
<use xlink:href="#path9_fill" transform="translate(-405.456 -95.2294)" fill="#FFFFFF"/>
</g>
</g>
</mask>
<g id="Mask" mask="url(#mask1_alpha)">
<use xlink:href="#path9_fill" transform="translate(-405.456 -95.2294)" fill="#5B52A5" fill-opacity="0.670743"/>
</g>
<g id="Path 3 Copy" opacity="0.613386" mask="url(#mask1_alpha)">
<use xlink:href="#path10_stroke" transform="matrix(-0.731354 0.681998 0.681998 0.731354 -189.161 -117.396)" fill="#50E3C2"/>
</g>
<g id="Path 3" opacity="0.5" mask="url(#mask1_alpha)">
<use xlink:href="#path11_stroke" transform="matrix(0.75471 -0.656059 0.656059 0.75471 -395.911 40.233)" fill="#FFFFFF"/>
</g>
</g>
</g>
</g>
<g id="Avatar">
<g id="Oval 4" opacity="0.290112">
<use xlink:href="#path12_fill" transform="translate(-221.783 -154.023)" fill="#F2F1FE"/>
</g>
<g id="Oval 5" opacity="0.362139">
<use xlink:href="#path13_fill" transform="translate(-192.924 -137.901)" fill="#FFFFFF"/>
</g>
<g id="Oval 6" opacity="0.3592">
<use xlink:href="#path14_fill" transform="translate(-166.338 -126.797)" fill="#50479C"/>
</g>
</g>
</g>
</g>
</g>
</g>
</g>
<defs>
<path id="path0_fill" d="M 547.024 125.527L 253.349 348.955C 244.14 355.962 231.722 357.047 221.437 351.744L 10.8359 243.166C -2.5687 236.255 -3.79266 217.559 8.59653 208.959L 296.781 8.92537C 311.87 -1.54816 331.487 -2.90537 347.874 5.39041L 545.178 105.27C 553.081 109.271 554.074 120.163 547.024 125.527Z"/>
<path id="path1_fill" fill-rule="evenodd" d="M 421.514 40L 0 40L 0 0L 421.514 0L 421.514 40Z"/>
<path id="path2_fill" d="M 8.79507 11.2727C 13.6525 11.2727 17.5901 8.74923 17.5901 5.63635C 17.5901 2.52348 13.6525 0 8.79507 0C 3.93769 0 0 2.52348 0 5.63635C 0 8.74923 3.93769 11.2727 8.79507 11.2727Z"/>
<path id="path3_fill" d="M 8.79507 11.2727C 13.6524 11.2727 17.5901 8.74922 17.5901 5.63635C 17.5901 2.52347 13.6524 -4.62508e-06 8.79507 -4.62508e-06C 3.93768 -4.62508e-06 0 2.52347 0 5.63635C 0 8.74922 3.93768 11.2727 8.79507 11.2727Z"/>
<path id="path4_fill" d="M 8.79507 11.2727C 13.6525 11.2727 17.5901 8.74922 17.5901 5.63635C 17.5901 2.52347 13.6525 -6.09188e-06 8.79507 -6.09188e-06C 3.93769 -6.09188e-06 2.50855e-06 2.52347 2.50855e-06 5.63635C 2.50855e-06 8.74922 3.93769 11.2727 8.79507 11.2727Z"/>
<path id="path5_fill" fill-rule="evenodd" d="M 55.9145 0.457446C 54.4307 -0.284252 52.1347 -0.104902 50.788 0.856784L 0.942823 36.4509C -0.40468 37.4132 -0.294914 38.7941 1.1896 39.5362L 9.49753 43.6891C 10.9813 44.4308 13.2773 44.2514 14.6241 43.2897L 64.4692 7.69556C 65.8167 6.73331 65.7069 5.35237 64.2224 4.61031L 55.9145 0.457446Z"/>
<path id="path6_fill" fill-rule="evenodd" d="M 129.338 0.304087C 127.789 -0.291302 125.447 0.0144089 124.105 0.986985L 0.945932 90.2771C -0.395511 91.2497 -0.299213 92.6753 1.16474 93.4634L 8.57331 97.4516C 10.0356 98.2387 12.3084 98.0719 13.6359 97.0893L 136.823 5.89849C 138.157 4.91122 137.985 3.62914 136.434 3.03284L 129.338 0.304087Z"/>
<path id="path7_fill" fill-rule="evenodd" d="M 129.338 0.304087C 127.789 -0.291302 125.447 0.0144089 124.105 0.986985L 0.945931 90.2771C -0.395512 91.2497 -0.299214 92.6753 1.16474 93.4634L 8.57331 97.4516C 10.0356 98.2387 12.3084 98.0719 13.6359 97.0893L 136.823 5.89849C 138.157 4.91122 137.985 3.62914 136.434 3.03284L 129.338 0.304087Z"/>
<path id="path8_fill" fill-rule="evenodd" d="M 55.9382 0.457451C 54.4544 -0.284248 52.1584 -0.104897 50.8117 0.856789L 0.966581 36.4509C -0.380922 37.4132 -0.311916 38.86 1.12602 39.6855L 11.0479 45.3816C 12.4835 46.2057 14.7116 46.0564 16.0229 45.0494L 64.5571 7.77769C 65.8692 6.77009 65.7307 5.35236 64.2462 4.6103L 55.9382 0.457451Z"/>
<path id="path9_fill" d="M 1.60651 109.028C -0.385746 108.069 -0.547569 106.243 1.24718 104.95L 145.245 1.18747C 147.038 -0.105125 150.117 -0.385395 152.115 0.55912L 252.365 47.9373C 254.366 48.8829 254.547 50.6973 252.757 51.9982L 108.725 156.721C 106.941 158.018 103.881 158.293 101.887 157.332L 1.60651 109.028Z"/>
<path id="path10_stroke" d="M 47.8843 32.24L 48.3599 34.1826L 48.8722 34.0572L 49.2561 33.6953L 47.8843 32.24ZM 82.0873 -1.84683e-06L 82.4057 -1.9745L 81.4327 -2.13139L 80.7155 -1.45536L 82.0873 -1.84683e-06ZM 112.381 4.88484L 113.544 3.25723L 113.162 2.98494L 112.7 2.91035L 112.381 4.88484ZM 167.106 43.9636L 165.944 45.5912L 167.344 46.591L 168.542 45.3561L 167.106 43.9636ZM 198.378 11.7236L 199.7 10.223L 198.269 8.96265L 196.942 10.3311L 198.378 11.7236ZM 0.475618 45.9062L 48.3599 34.1826L 47.4086 30.2974L -0.475617 42.021L 0.475618 45.9062ZM 49.2561 33.6953L 83.4591 1.45536L 80.7155 -1.45536L 46.5124 30.7846L 49.2561 33.6953ZM 81.7689 1.97449L 112.063 6.85934L 112.7 2.91035L 82.4057 -1.9745L 81.7689 1.97449ZM 111.219 6.51246L 165.944 45.5912L 168.269 42.336L 113.544 3.25723L 111.219 6.51246ZM 168.542 45.3561L 199.813 13.1161L 196.942 10.3311L 165.671 42.5711L 168.542 45.3561ZM 197.055 13.2242L 254.712 64.0266L 257.356 61.0254L 199.7 10.223L 197.055 13.2242Z"/>
<path id="path11_stroke" d="M 60.8374 57.3969L 59.7807 59.095L 60.6184 59.6163L 61.5419 59.2687L 60.8374 57.3969ZM 104.64 40.9106L 105.345 42.7824L 105.939 42.5587L 106.295 42.0333L 104.64 40.9106ZM 124.108 12.2121L 125.903 11.3292L 124.384 8.24257L 122.453 11.0893L 124.108 12.2121ZM 149.342 63.503L 147.547 64.3859L 149.061 67.4619L 150.994 64.6307L 149.342 63.503ZM 166.851 37.8575L 168.41 36.6051L 166.72 34.5015L 165.199 36.7298L 166.851 37.8575ZM 187.45 63.503L 185.89 64.7554L 187.318 66.5331L 188.895 64.8857L 187.45 63.503ZM -1.05667 21.2374L 59.7807 59.095L 61.894 55.6988L 1.05667 17.8413L -1.05667 21.2374ZM 61.5419 59.2687L 105.345 42.7824L 103.936 39.0388L 60.1328 55.5251L 61.5419 59.2687ZM 106.295 42.0333L 125.763 13.3349L 122.453 11.0893L 102.985 39.7878L 106.295 42.0333ZM 122.314 13.095L 147.547 64.3859L 151.136 62.6201L 125.903 11.3292L 122.314 13.095ZM 150.994 64.6307L 168.503 38.9853L 165.199 36.7298L 147.69 62.3753L 150.994 64.6307ZM 165.292 39.11L 185.89 64.7554L 189.009 62.2505L 168.41 36.6051L 165.292 39.11ZM 188.895 64.8857L 249.661 1.38274L 246.771 -1.38274L 186.005 62.1202L 188.895 64.8857Z"/>
<path id="path12_fill" d="M 56.1907 65.4569C 87.224 65.4569 112.381 50.8039 112.381 32.7285C 112.381 14.653 87.224 0 56.1907 0C 25.1574 0 0 14.653 0 32.7285C 0 50.8039 25.1574 65.4569 56.1907 65.4569Z"/>
<path id="path13_fill" d="M 15.8593 20.327C 24.6182 20.327 31.7186 15.7767 31.7186 10.1635C 31.7186 4.55036 24.6182 0 15.8593 0C 7.10046 0 0 4.55036 0 10.1635C 0 15.7767 7.10046 20.327 15.8593 20.327Z"/>
<path id="path14_fill" fill-rule="evenodd" d="M 44.9526 2.93091C 44.9526 2.93091 44.7497 -1.31274e-07 28.8283 -1.31274e-07C 12.9069 -1.31274e-07 -9.49854e-07 8.74808 -9.49854e-07 19.5394C -9.49854e-07 30.3307 6.84061 34.1939 6.84061 34.1939"/>
</defs>
</svg>
