<svg xmlns="http://www.w3.org/2000/svg" xmlns:xlink="http://www.w3.org/1999/xlink" width="412" height="252" viewBox="0 0 412 252">
    <defs>
        <path id="b" d="M0 0h412v252H0z"/>
        <filter id="a" width="104.1%" height="106.7%" x="-2.1%" y="-2.6%" filterUnits="objectBoundingBox">
            <feOffset dy="2" in="SourceAlpha" result="shadowOffsetOuter1"/>
            <feGaussianBlur in="shadowOffsetOuter1" result="shadowBlurOuter1" stdDeviation="2.5"/>
            <feColorMatrix in="shadowBlurOuter1" values="0 0 0 0 0 0 0 0 0 0 0 0 0 0 0 0 0 0 0.296535326 0"/>
        </filter>
    </defs>
    <g fill="none" fill-rule="evenodd" transform="translate(0 -1)">
        <g transform="translate(0 .59)">
            <use fill="#000" filter="url(#a)" xlink:href="#b"/>
            <use fill="#7870BD" xlink:href="#b"/>
            <g fill="#F7F7F8" opacity=".4">
                <path d="M264.224 205.291l1.692 3.585c.118.25.345.422.608.462l3.783.575c.663.1.928.952.448 1.44l-2.737 2.79a.869.869 0 0 0-.232.748l.646 3.94c.113.69-.58 1.216-1.172.89l-3.384-1.86a.778.778 0 0 0-.752 0l-3.384 1.86c-.592.326-1.285-.2-1.172-.89l.646-3.94a.869.869 0 0 0-.232-.748l-2.737-2.79c-.48-.488-.215-1.34.448-1.44l3.783-.575a.811.811 0 0 0 .608-.462l1.692-3.585a.792.792 0 0 1 1.448 0zM288.224 205.291l1.692 3.585c.118.25.345.422.608.462l3.783.575c.663.1.928.952.448 1.44l-2.737 2.79a.869.869 0 0 0-.232.748l.646 3.94c.113.69-.58 1.216-1.172.89l-3.384-1.86a.778.778 0 0 0-.752 0l-3.384 1.86c-.592.326-1.285-.2-1.172-.89l.646-3.94a.869.869 0 0 0-.232-.748l-2.737-2.79c-.48-.488-.215-1.34.448-1.44l3.783-.575a.811.811 0 0 0 .608-.462l1.692-3.585a.792.792 0 0 1 1.448 0zM311.224 205.291l1.692 3.585c.118.25.345.422.608.462l3.783.575c.663.1.928.952.448 1.44l-2.737 2.79a.869.869 0 0 0-.232.748l.646 3.94c.113.69-.58 1.216-1.172.89l-3.384-1.86a.778.778 0 0 0-.752 0l-3.384 1.86c-.592.326-1.285-.2-1.172-.89l.646-3.94a.869.869 0 0 0-.232-.748l-2.737-2.79c-.48-.488-.215-1.34.448-1.44l3.783-.575a.811.811 0 0 0 .608-.462l1.692-3.585a.792.792 0 0 1 1.448 0zM335.224 205.291l1.692 3.585c.118.25.345.422.608.462l3.783.575c.663.1.928.952.448 1.44l-2.737 2.79a.869.869 0 0 0-.232.748l.646 3.94c.113.69-.58 1.216-1.172.89l-3.384-1.86a.778.778 0 0 0-.752 0l-3.384 1.86c-.592.326-1.285-.2-1.172-.89l.646-3.94a.869.869 0 0 0-.232-.748l-2.737-2.79c-.48-.488-.215-1.34.448-1.44l3.783-.575a.811.811 0 0 0 .608-.462l1.692-3.585a.792.792 0 0 1 1.448 0zM359.224 205.291l1.692 3.585c.118.25.345.422.608.462l3.783.575c.663.1.928.952.448 1.44l-2.737 2.79a.869.869 0 0 0-.232.748l.646 3.94c.113.69-.58 1.216-1.172.89l-3.384-1.86a.778.778 0 0 0-.752 0l-3.384 1.86c-.592.326-1.285-.2-1.172-.89l.646-3.94a.869.869 0 0 0-.232-.748l-2.737-2.79c-.48-.488-.215-1.34.448-1.44l3.783-.575a.811.811 0 0 0 .608-.462l1.692-3.585a.792.792 0 0 1 1.448 0z"/>
            </g>
            <rect width="75.626" height="75.626" x="167.663" y="55.483" fill="#14E1A8" rx="37.813" transform="rotate(45 205.476 93.296)"/>
        </g>
        <rect width="131" height="15" x="141" y="149" fill="#FFF" fill-opacity=".985" rx="4"/>
        <path stroke="#FFF" stroke-linecap="square" d="M14.5 186.5h367.227M100.5 229.69V187.5M229.5 229.69V187.5" opacity=".3"/>
        <g transform="translate(23 205)">
            <rect width="46" height="7" fill="#FFF" fill-opacity=".985" opacity=".5" rx="3"/>
            <rect width="46" height="15" y="13" fill="#423D6F" opacity=".661" rx="3"/>
        </g>
        <g transform="translate(142 205)">
            <rect width="46" height="7" fill="#FFF" fill-opacity=".985" opacity=".5" rx="3"/>
            <rect width="46" height="15" y="13" fill="#423D6F" opacity=".661" rx="3"/>
        </g>
    </g>
</svg>
