<?xml version="1.0" encoding="UTF-8" standalone="no"?>
<svg width="554px" height="357px" viewBox="0 0 554 357" version="1.1" xmlns="http://www.w3.org/2000/svg" xmlns:xlink="http://www.w3.org/1999/xlink">
    <!-- Generator: Sketch 44.1 (41455) - http://www.bohemiancoding.com/sketch -->
    <title>Screen</title>
    <desc>Created with Sketch.</desc>
    <defs>
        <path d="M45.9792205,134.988298 C43.0687392,126.066809 48.2474831,119.847995 57.563048,121.100443 L424.639019,170.452648 C433.947071,171.704087 443.800554,179.967178 446.650714,188.919228 L518.936301,415.960539 C524.632668,433.852219 514.26776,445.64683 495.790482,442.305416 L157.781043,381.180106 C139.301593,377.838299 119.60128,360.661765 113.773922,342.799185 L45.9792205,134.988298 Z" id="path-1"></path>
        <filter x="-0.3%" y="-1.4%" width="101.3%" height="101.9%" filterUnits="objectBoundingBox" id="filter-3">
            <feOffset dx="3" dy="-3" in="SourceAlpha" result="shadowOffsetOuter1"></feOffset>
            <feColorMatrix values="0 0 0 0 0.279963089   0 0 0 0 0.233133387   0 0 0 0 0.531223427  0 0 0 0.727496603 0" type="matrix" in="shadowOffsetOuter1"></feColorMatrix>
        </filter>
        <path d="M1.63006851,109.204178 C-0.362187385,108.244529 -0.524010188,106.419409 1.27074076,105.126135 L145.268202,1.36347564 C147.062007,0.0708838078 150.140341,-0.209385502 152.138885,0.73512864 L252.388748,48.1133167 C254.389517,49.0588821 254.570234,50.8732987 252.781051,52.1741753 L108.748467,156.897171 C106.964361,158.194356 103.904496,158.468696 101.910759,157.508334 L1.63006851,109.204178 Z" id="path-4"></path>
    </defs>
    <g id="Page-1" stroke="none" stroke-width="1" fill="none" fill-rule="evenodd">
        <g id="Isometric" transform="translate(-15.000000, -114.000000)">
            <g id="Screen" transform="translate(8.000000, 0.000000)">
                <g>
                    <g id="Plaha">
                        <mask id="mask-2" fill="white">
                            <use xlink:href="#path-1"></use>
                        </mask>
                        <g id="Mask" transform="translate(282.834106, 281.905751) rotate(-225.000000) translate(-282.834106, -281.905751) ">
                            <use fill="black" fill-opacity="1" filter="url(#filter-3)" xlink:href="#path-1"></use>
                            <use fill="#867DD4" fill-rule="evenodd" xlink:href="#path-1"></use>
                        </g>
                        <path d="M305.813965,120.268555 C297.526252,125.367324 200.986088,192.370525 16.1934725,321.278159 L16.1934723,321.278159 C9.17584179,326.173518 6.89019141,335.521719 10.8572967,343.102863 C13.2317291,347.640408 14.4189453,349.90918 14.4189453,349.90918 C14.4189453,349.90918 18.3258464,352.215495 26.1396484,356.828125 L363.472656,120.268555 C349.52181,114.521484 338.121419,112.399577 329.271484,113.902832 C320.741552,113.803566 308.532229,118.596223 305.813965,120.268555 Z" id="Path-6" fill-opacity="0.425300045" fill="#FEFEFE" opacity="0.472831157" mask="url(#mask-2)"></path>
                    </g>
                    <ellipse id="Oval-5-Copy" fill-opacity="0.60193048" fill="#FFFFFF" opacity="0.699999988" cx="38.8095704" cy="329.581825" rx="8.79506899" ry="5.63635908"></ellipse>
                    <ellipse id="Oval-5-Copy-2" fill-opacity="0.60193048" fill="#FFFFFF" opacity="0.699999988" cx="60.1802005" cy="314.078716" rx="8.79506899" ry="5.63635908"></ellipse>
                    <ellipse id="Oval-5-Copy-3" fill-opacity="0.60193048" fill="#FFFFFF" opacity="0.699999988" cx="81.8076855" cy="299.295789" rx="8.79506899" ry="5.63635908"></ellipse>
                </g>
                <g id="Data" transform="translate(94.534444, 256.534612)">
                    <path d="M171.241457,126.507143 C169.757664,125.765444 167.461662,125.944792 166.114942,126.906478 L116.269809,162.500636 C114.922306,163.462881 115.032065,164.843838 116.516583,165.585899 L124.824512,169.738754 C126.308305,170.480452 128.604307,170.301105 129.951027,169.339418 L179.79616,133.745261 C181.143663,132.783015 181.033904,131.402059 179.549386,130.659998 L171.241457,126.507143 Z" id="Path-5" fill-opacity="0.494338768" fill="#FFFFFF" opacity="0.600000024"></path>
                    <path d="M309.161958,25.7217664 C307.613533,25.1263774 305.270879,25.432087 303.92939,26.4046631 L180.770069,115.694822 C179.428626,116.667364 179.524924,118.093 180.98888,118.881074 L188.397452,122.869239 C189.859741,123.656415 192.132568,123.489583 193.459994,122.506942 L316.647442,31.3161694 C317.981118,30.3289021 317.8094,29.0468175 316.258604,28.4505167 L309.161958,25.7217664 Z" id="Path-5-Copy" fill-opacity="0.494338768" fill="#FFFFFF" opacity="0.600000024"></path>
                    <path d="M342.387774,25.7217664 C340.83935,25.1263774 338.496695,25.432087 337.155206,26.4046631 L213.995885,115.694822 C212.654442,116.667364 212.75074,118.093 214.214696,118.881074 L221.623268,122.869239 C223.085557,123.656415 225.358384,123.489583 226.68581,122.506942 L349.873258,31.3161694 C351.206934,30.3289021 351.035217,29.0468175 349.484421,28.4505167 L342.387774,25.7217664 Z" id="Path-5-Copy-2" fill="#CDCCE9" opacity="0.642980413"></path>
                    <path d="M197.645179,135.299863 C196.161386,134.558164 193.865384,134.737512 192.518664,135.699198 L142.673531,171.293356 C141.326028,172.255602 141.395038,173.702391 142.832975,174.527897 L152.754889,180.223975 C154.190451,181.048117 156.418602,180.898813 157.729902,179.891803 L206.264054,142.620095 C207.576116,141.612499 207.437627,140.194779 205.953108,139.452718 L197.645179,135.299863 Z" id="Path-5" fill-opacity="0.494338768" fill="#FFFFFF" opacity="0.300000012"></path>
                    <g id="Stata">
                        <g>
                            <mask id="mask-5" fill="white">
                                <use xlink:href="#path-4"></use>
                            </mask>
                            <use id="Mask" fill-opacity="0.670742754" fill="#5B52A5" xlink:href="#path-4"></use>
                            <polyline id="Path-3-Copy" stroke="#50E3C2" stroke-width="4" opacity="0.6133862" mask="url(#mask-5)" transform="translate(144.014278, 88.180873) scale(-1, 1) rotate(43.000000) translate(-144.014278, -88.180873) " points="15.9971624 100.881468 63.8814269 89.1578415 98.084473 56.9178676 128.3786 61.8027121 183.103473 100.881468 214.37483 68.6414945 272.031393 119.443878"></polyline>
                            <polyline id="Path-3" stroke="#FFFFFF" stroke-width="4" opacity="0.5" mask="url(#mask-5)" transform="translate(124.065183, 78.179330) rotate(-41.000000) translate(-124.065183, -78.179330) " points="-0.0430127487 65.9672188 60.7943381 103.824764 104.597231 87.3384136 124.065183 58.639952 149.2988 109.93082 166.80784 84.2853858 187.40671 109.93082 248.173379 46.4278406"></polyline>
                        </g>
                    </g>
                </g>
                <g id="Avatar" transform="translate(278.230893, 197.916477)">
                    <ellipse id="Oval-4" fill="#F2F1FE" opacity="0.29011194" cx="56.1907186" cy="32.7284584" rx="56.1907186" ry="32.7284584"></ellipse>
                    <ellipse id="Oval-5" fill="#FFFFFF" opacity="0.362138514" cx="44.7186006" cy="26.2864538" rx="15.8593192" ry="10.1635152"></ellipse>
                    <path d="M100.397823,30.1576429 C100.397823,30.1576429 100.194951,27.2267362 84.2735303,27.2267362 C68.35211,27.2267362 55.4452486,35.9748138 55.4452486,46.7661143 C55.4452486,57.5574149 62.2858578,61.4206479 62.2858578,61.4206479" id="Oval-6" fill="#50479C" opacity="0.359200093"></path>
                </g>
            </g>
        </g>
    </g>
</svg>