<?xml version="1.0" encoding="UTF-8" standalone="no"?>
<svg width="145px" height="175px" viewBox="0 0 145 175" version="1.1" xmlns="http://www.w3.org/2000/svg" xmlns:xlink="http://www.w3.org/1999/xlink">
    <!-- Generator: Sketch 44.1 (41455) - http://www.bohemiancoding.com/sketch -->
    <title>Teremok</title>
    <desc>Created with Sketch.</desc>
    <defs></defs>
    <g id="Page-1" stroke="none" stroke-width="1" fill="none" fill-rule="evenodd" opacity="0.900000036">
        <g id="TSP_Screen_1920" transform="translate(-1205.000000, -782.000000)">
            <g id="Block_2" transform="translate(224.000000, -84.000000)">
                <g id="Isometric" transform="translate(720.000000, 839.000000)">
                    <g id="Teremok" transform="translate(332.500000, 114.500000) rotate(-1.000000) translate(-332.500000, -114.500000) translate(260.000000, 27.000000)">
                        <ellipse id="Oval-7" fill-opacity="0.795289855" fill="#5E53BF" opacity="0.908523787" cx="72.9173937" cy="101.964023" rx="72.0760234" ry="72.2087379"></ellipse>
                        <path d="M111.929824,93.3336617 C111.930194,92.8104315 111.652138,92.350095 111.235055,92.1032561 L72.6365563,69.3018224 C72.4590226,69.1970627 72.2609401,69.1336007 72.0565634,69.1163617 L38.2901667,66.2660641 C38.0128512,66.2456047 37.7307226,66.3047097 37.4819162,66.4517142 C37.0524289,66.7055624 36.7877019,67.1746131 36.7877019,67.6821199 L36.7877019,84.4006706 L27.3206557,101.175106 C27.1364575,101.501509 27.0864741,101.889291 27.1818128,102.253392 C27.2771516,102.617494 27.5098522,102.927795 27.8288205,103.116286 L36.7834441,108.40561 L36.7875168,130.386583 C36.7875168,130.89409 37.0522438,131.362952 37.4817311,131.61661 L76.0724541,154.421264 C76.2871977,154.548188 76.526933,154.61165 76.7666684,154.61165 C77.0062186,154.61165 77.2459539,154.548188 77.4608826,154.421454 C77.4610678,154.421454 111.23561,134.466908 111.23561,134.466908 C111.665282,134.21306 111.929824,133.744009 111.929824,133.236313 L111.929824,93.3336617 Z M104.486922,91.3968385 L77.1956002,89.0968609 L44.2304193,69.6187537 L71.5180383,71.9223306 L104.486922,91.3968385 Z M70.5540986,122.671116 L70.5579862,147.881455 L63.6869311,143.821211 L63.6869311,124.29707 L66.4280593,125.916204 C66.6466905,126.045402 66.8853151,126.10678 67.1209777,126.10678 C67.6008186,126.10678 68.0675157,125.851985 68.3246527,125.396195 L70.0351966,122.364415 L70.5540986,122.671116 Z M56.0827858,133.625231 L44.3890704,126.720373 L44.3890704,112.897964 L56.0692717,119.797328 L56.0827858,133.625231 Z M46.7097824,91.4637104 L38.6955878,106.253773 L35.5449658,104.392726 L43.5593455,89.6022838 L46.7097824,91.4637104 Z M49.1149109,92.8846916 L52.2653478,94.7461181 L44.2513383,109.535613 L41.1007163,107.674565 L49.1149109,92.8846916 Z M52.2125875,114.238244 L60.2262267,99.449507 L63.3766636,101.310934 L55.3632095,116.099291 L52.2125875,114.238244 Z M49.8072739,112.817452 L46.6566519,110.956404 L54.6704762,96.1670993 L57.8209131,98.0285259 L49.8072739,112.817452 Z M57.768338,117.520083 L65.781607,102.731915 L68.9320439,104.593341 L60.91896,119.381131 L57.768338,117.520083 Z M66.6139236,122.744997 L63.3242736,120.801733 L71.3371723,106.014133 L74.8743328,108.104023 L66.6139236,122.744997 Z M39.564559,83.960983 L39.564559,70.1429311 L75.3826828,91.306855 L75.3826828,105.123012 L39.564559,83.960983 Z M38.6841102,86.7220549 L41.1542171,88.1814921 L33.1396522,102.972123 L30.4198133,101.365492 L38.6841102,86.7220549 Z M39.5606714,110.045961 L41.6120282,111.257612 L41.6120282,127.540832 C41.6120282,128.048529 41.8767553,128.517769 42.3064276,128.771427 L56.7795917,137.317395 C56.9943354,137.44413 57.2338856,137.507592 57.4736209,137.507592 C57.7135413,137.507592 57.9536469,137.44394 58.1685756,137.316827 C58.598248,137.0626 58.8626048,136.59317 58.8620494,136.085474 L58.8476098,121.438627 L60.9102592,122.657098 L60.9102592,142.180291 L39.5643738,129.565934 L39.5606714,110.045961 Z M73.3352135,149.522375 L73.3309557,121.850467 C73.3309557,121.34296 73.0662287,120.874099 72.6367414,120.620251 L71.4236251,119.903414 L75.3821274,112.887355 L75.3786101,150.729858 L73.3352135,149.522375 Z M78.1554671,150.729858 L78.1595399,107.584203 C78.1584291,107.584203 78.1595399,92.0293749 78.1595399,92.0293749 L109.152412,94.641169 L109.15019,105.144419 L106.937405,101.209205 C106.698411,100.759666 106.234305,100.467173 105.717254,100.467173 C105.458451,100.467173 105.20983,100.540864 104.996012,100.67404 L80.9010383,114.909047 C80.4715511,115.162706 80.206824,115.631756 80.206824,116.139263 L80.2025662,144.639966 C80.2025662,145.147662 80.4671081,145.616713 80.8967804,145.870561 C81.111524,145.997485 81.3514445,146.060947 81.5909947,146.060947 C81.8305449,146.060947 82.0704654,145.997485 82.285209,145.870561 L106.407951,131.619073 C106.837439,131.365414 107.102166,130.896364 107.102166,130.388857 L107.104387,114.129695 L109.151301,112.922401 L109.153337,132.416232 L78.1554671,150.729858 Z M86.9284842,122.750112 L83.492031,116.659273 L105.207423,103.830092 L108.643877,109.94158 L86.9284842,122.750112 Z M104.326975,115.767773 L104.325123,129.568397 L82.9796084,142.179155 L82.9827555,121.439953 L85.2173849,125.400552 C85.600406,126.07969 86.4488284,126.312889 87.1132378,125.92113 L104.326975,115.767773 Z" id="Shape" fill="#14E1A8"></path>
                        <path d="M72.9239766,93.1646752 C72.9239766,92.6602573 72.6621276,92.1938731 72.2373097,91.9417583 L43.6097083,74.9465089 C43.1848904,74.6942058 42.6611924,74.6942058 42.2363745,74.9465089 C41.8115566,75.198812 41.5497076,75.6650078 41.5497076,76.1694257 L41.5497076,81.8353248 C41.5497076,82.3397427 41.8115566,82.8061269 42.2363745,83.0582417 L70.8639759,100.053491 C71.0763848,100.179643 71.3135138,100.242718 71.5506428,100.242718 C71.7877718,100.242718 72.0249007,100.179643 72.2373097,100.053491 C72.6621276,99.801188 72.9239766,99.3349922 72.9239766,98.8305743 L72.9239766,93.1646752 Z M44.2963753,81.0200469 L44.2963753,78.6152595 L70.177309,93.9799531 L70.177309,96.3845522 L44.2963753,81.0200469 Z" id="Shape" fill="#FFFFFF"></path>
                        <g id="Pin" transform="translate(61.559306, 0.823022)">
                            <path d="M20.0844079,32.454337 C21.887106,31.3900713 22.8851463,29.2294729 22.8946703,26.3707656 C22.9034973,23.6873575 22.0343788,20.6616647 20.4474795,17.850939 C18.8604641,15.0402133 16.7324418,12.7576419 14.4554045,11.4238952 C12.0297007,10.0029739 9.70086245,9.80641555 7.89804825,10.8708 C6.0953502,11.9350658 5.09719369,14.0956642 5.08778589,16.9544902 C5.07895881,19.6377795 5.94796125,22.6635911 7.53497666,25.4743168 C9.12187593,28.2850425 11.2498982,30.5676139 13.5269355,31.9013606 C14.9225427,32.7188298 16.2860937,33.131068 17.5358219,33.131068 C18.4582514,33.1308304 19.3188913,32.9062432 20.0844079,32.454337 Z M9.04382599,24.5833313 C6.21323813,19.5698451 6.08745229,13.9967317 8.76925746,12.4134568 C9.26752269,12.1192725 9.83361704,11.9798407 10.4438468,11.9798407 C13.1181025,11.9798407 16.6340664,14.659567 18.9388624,18.7415683 C21.7694503,23.7550544 21.8952362,29.3281678 19.213431,30.9114427 C18.7151657,31.2056271 18.1489553,31.3450588 17.5387255,31.34494 C14.8643537,31.3448213 11.3486221,28.6653325 9.04382599,24.5833313 Z" id="Shape" fill="#FFFFFF"></path>
                            <path d="M33.7291286,23.5137388 C33.2591221,19.8845316 31.9355259,16.0670187 29.901365,12.4738269 C27.2973257,7.87470837 23.8142023,4.14484887 20.0937953,1.97140311 C16.2232294,-0.289576758 12.5339301,-0.61741228 9.70547113,1.04824022 C9.4650299,1.18955892 6.33999558,2.97888019 4.34735058,4.16989269 C1.99685044,5.58367592 0.534205276,8.20015877 0.116824561,11.7436207 C-0.273775492,15.0583491 0.322415846,19.038289 1.79546922,22.953592 C1.7974573,22.9596741 1.79956233,22.9657562 1.80178431,22.971719 L13.4852868,55.4813395 C13.6004787,55.8017811 13.8845409,56.0275333 14.2174865,56.0630717 C14.2481264,56.0664108 14.2786493,56.0679612 14.3090553,56.0679612 C14.4634242,56.0679612 14.6126474,56.0257444 14.7435101,55.9495397 L20.0407018,52.8652144 C20.1661849,52.7921103 20.2720212,52.6885959 20.3488548,52.5637345 L31.8481671,33.8637531 C32.1029927,33.510993 32.3385222,33.1262722 32.5486744,32.7198468 C33.7899406,30.3198141 34.1983164,27.1363869 33.7291286,23.5137388 Z M3.46031424,22.3884365 C3.45551944,22.373291 3.45025687,22.3581454 3.44452651,22.3431191 C2.06362668,18.6849327 1.50041415,14.9963358 1.85838623,11.9569702 C2.30383402,8.17583049 3.96762652,6.45758596 5.28490766,5.68206236 C7.55050491,4.34830009 10.6191712,4.67732817 13.9251212,6.60856442 C17.381113,8.62745403 20.6343203,12.1236905 23.085511,16.4531706 C26.8965513,23.184353 27.9475461,30.6257065 25.7008941,34.9699744 L25.7008941,34.9699744 C25.5286325,35.3029379 14.5164008,53.1522643 14.5164008,53.1522643 L3.46031424,22.3884365 Z M30.9970332,31.8854106 C30.8227835,32.2223096 18.9794157,51.4232867 18.9794157,51.4232867 L16.9086507,52.6293255 C16.9086507,52.6293255 27.0444882,36.206662 27.2525353,35.8044106 L27.2525353,35.8044106 C28.4938015,33.4043779 28.9019434,30.2209507 28.4327556,26.5984218 C27.9626322,22.9692146 26.638919,19.151821 24.6047581,15.5587485 C22.0009527,10.9597492 18.5178293,7.23000891 14.7971884,5.05644389 C12.9914233,4.00162207 11.225186,3.36789418 9.56712387,3.16074602 C10.0063735,2.9221142 10.356861,2.73023084 10.5822162,2.59785637 C12.8476965,1.26373633 15.916012,1.59276441 19.221845,3.5238814 C22.6776029,5.54265176 25.9308102,9.03888821 28.3822349,13.3684876 C32.1931582,20.0999085 33.2439191,27.541262 30.9970332,31.8854106 Z" id="Shape" fill="#15E1A7"></path>
                        </g>
                    </g>
                </g>
            </g>
        </g>
    </g>
</svg>