<svg xmlns="http://www.w3.org/2000/svg" xmlns:xlink="http://www.w3.org/1999/xlink" width="494" height="178" viewBox="0 0 494 178">
    <defs>
        <path id="a" d="M1 3.904c0-1.658 1.183-2.368 2.643-1.585l35.714 19.164c1.46.783 2.643 2.762 2.643 4.42V53.9c0 1.658-1.183 2.368-2.643 1.584L3.643 36.32C2.183 35.536 1 33.56 1 31.9V3.904z"/>
    </defs>
    <g fill="none" fill-rule="evenodd">
        <g transform="translate(-1)">
            <g transform="translate(0 56)">
                <use fill="#FFF" xlink:href="#a"/>
                <path stroke="#15E1A7" stroke-width="3" d="M2.5 3.904v27.995c0 1.106.88 2.577 1.852 3.099l35.714 19.164c.46.246.434.262.434-.263V25.904c0-1.107-.88-2.577-1.852-3.099L2.934 3.641c-.46-.247-.434-.262-.434.263z"/>
            </g>
            <path fill="#6E67B7" d="M4.405 70l35 17v10l-35-17.796z"/>
            <path stroke="#15E1A7" stroke-linecap="round" stroke-width="3" d="M3 59l1.604-1.203c1.323-.992 3.584-1.157 5.046-.37l33.7 18.146C44.814 76.361 46 78.347 46 80v25.008c0 1.1-.76 2.448-1.72 3.024L41 110"/>
            <text fill="#6E67B7" font-family="GothamPro-Bold, Gotham Pro" font-size="34" font-weight="bold">
                <tspan x="86.62" y="96">+</tspan>
            </text>
            <text fill="#6E67B7" font-family="GothamPro-Bold, Gotham Pro" font-size="34" font-weight="bold">
                <tspan x="244.62" y="96">=</tspan>
            </text>
            <path fill="#15E1A7" d="M205.747 93.328l-.32-.508a5.518 5.518 0 0 1-.715-4.206l.2-.873a7.938 7.938 0 0 0-2.387-7.622l-.566-.515a5.596 5.596 0 0 1-1.819-4.073l-.007-.835c-.022-2.786-1.543-5.393-3.97-6.805l-.727-.423a5.626 5.626 0 0 1-2.654-3.595l-.17-.745c-.633-2.772-2.73-5.015-5.472-5.856l-.868-.266a5.615 5.615 0 0 1-3.322-2.717l-.285-.527c-1.436-2.665-4.334-4.32-7.382-4.214l-1.1.038a5.736 5.736 0 0 1-3.476-1.031 8.16 8.16 0 0 0-7.865-.7c-.583.258-7.898 4.531-8.376 4.952l-.561.494c-.58.509-1.245.89-1.98 1.13l-.713.235c-3.547 1.165-5.803 4.553-5.486 8.239a5.594 5.594 0 0 1-.84 3.445l-.582.923a7.948 7.948 0 0 0-.005 8.433l.321.51a5.521 5.521 0 0 1 .715 4.205l-.2.875a7.937 7.937 0 0 0 2.387 7.618l.566.518a5.598 5.598 0 0 1 1.82 4.072l.006.835c.022 2.787 1.544 5.394 3.97 6.806l.728.423a5.629 5.629 0 0 1 2.653 3.597l.17.743c.633 2.771 2.73 5.015 5.472 5.855l.867.266a5.615 5.615 0 0 1 3.322 2.715l.286.53c1.436 2.664 4.334 4.317 7.382 4.213l1.099-.038a5.738 5.738 0 0 1 3.43 1l.004.003a8.096 8.096 0 0 0 4.605 1.437c1.917 0 3.825-.68 5.347-2.02l.561-.494a5.646 5.646 0 0 1 1.98-1.13l.713-.235c.628-.206 8.707-4.8 9.47-5.55a7.909 7.909 0 0 0 2.346-6.333 5.556 5.556 0 0 1 .84-3.442l.583-.922a7.946 7.946 0 0 0 .005-8.435zm-13.996 22.439l-.713.234a8.023 8.023 0 0 0-2.814 1.608l-.561.494a5.69 5.69 0 0 1-6.995.413c-.002 0-.004-.002-.005-.003a8.153 8.153 0 0 0-4.883-1.426l-1.098.038c-2.144.075-4.183-1.09-5.193-2.963l-.286-.53a7.983 7.983 0 0 0-4.722-3.86l-.867-.266a5.642 5.642 0 0 1-3.85-4.119l-.17-.743a8.003 8.003 0 0 0-3.772-5.113l-.727-.423a5.622 5.622 0 0 1-2.793-4.787l-.007-.835a7.96 7.96 0 0 0-2.587-5.79l-.566-.517a5.583 5.583 0 0 1-1.679-5.359l.201-.874a7.85 7.85 0 0 0-1.017-5.98l-.32-.509a5.59 5.59 0 0 1 .003-5.932l.582-.923a7.951 7.951 0 0 0 1.194-4.897c-.224-2.592 1.363-4.975 3.858-5.795l.713-.234a8.022 8.022 0 0 0 2.814-1.608l.561-.494a5.69 5.69 0 0 1 7-.41l.007.005a8.157 8.157 0 0 0 4.876 1.421l1.098-.037c2.145-.075 4.183 1.089 5.193 2.962l.286.53a7.983 7.983 0 0 0 4.722 3.861l.867.266a5.642 5.642 0 0 1 3.85 4.119l.169.743a8.003 8.003 0 0 0 3.772 5.113l.728.423a5.62 5.62 0 0 1 2.792 4.787l.007.835a7.96 7.96 0 0 0 2.587 5.79l.566.517a5.582 5.582 0 0 1 1.68 5.359l-.202.875a7.85 7.85 0 0 0 1.018 5.978l.32.51a5.59 5.59 0 0 1-.003 5.932l-.582.923a7.952 7.952 0 0 0-1.194 4.897c.223 2.592-1.363 4.974-3.858 5.794zm11.966-15.256l-.582.923a7.9 7.9 0 0 0-1.194 4.898 5.56 5.56 0 0 1-1.646 4.447c-.232.211-1.209.83-2.52 1.618a7.918 7.918 0 0 0 .214-2.626 5.595 5.595 0 0 1 .84-3.444l.582-.923a7.948 7.948 0 0 0 .005-8.434l-.321-.51a5.521 5.521 0 0 1-.716-4.205l.201-.875a7.936 7.936 0 0 0-2.387-7.618l-.566-.517a5.598 5.598 0 0 1-1.82-4.073l-.006-.835c-.023-2.786-1.544-5.394-3.97-6.806l-.728-.423a5.629 5.629 0 0 1-2.653-3.596l-.17-.744c-.633-2.771-2.73-5.015-5.472-5.855l-.867-.266a5.614 5.614 0 0 1-3.322-2.715l-.286-.53c-1.436-2.664-4.337-4.317-7.382-4.213l-1.1.038a5.738 5.738 0 0 1-3.433-1.003l-.008-.005a8.118 8.118 0 0 0-2.49-1.152c1.009-.575 1.73-.978 1.902-1.057a5.741 5.741 0 0 1 5.605.54 8.156 8.156 0 0 0 4.839 1.398l1.1-.038a5.627 5.627 0 0 1 5.192 2.966l.285.527a7.983 7.983 0 0 0 4.723 3.86l.867.267a5.644 5.644 0 0 1 3.85 4.118l.169.744a8 8 0 0 0 3.774 5.113l.727.423a5.62 5.62 0 0 1 2.792 4.787l.007.834a7.958 7.958 0 0 0 2.588 5.792l.565.515a5.584 5.584 0 0 1 1.678 5.362l-.2.873a7.847 7.847 0 0 0 1.018 5.98l.32.508a5.589 5.589 0 0 1-.004 5.932z"/>
            <path fill="#6E67B7" d="M161.295 72.083c-.66 0-1.194.53-1.194 1.182l.002 9.064-4.717-13.476a1.196 1.196 0 0 0-1.326-.778 1.185 1.185 0 0 0-.996 1.165v16.092c0 .652.535 1.181 1.194 1.181.66 0 1.194-.529 1.194-1.181v-9.07l4.718 13.48a1.193 1.193 0 0 0 1.326.778c.575-.096.996-.588.996-1.165l-.003-16.09c0-.653-.534-1.182-1.194-1.182zM171.686 80.606a1.2 1.2 0 0 0 1.63-.432 1.175 1.175 0 0 0-.436-1.614l-7.037-4.025a1.205 1.205 0 0 0-1.195 0 1.18 1.18 0 0 0-.597 1.023v16.095c0 .422.228.812.597 1.023l7.038 4.022c.188.107.393.158.596.158.412 0 .814-.212 1.035-.59a1.175 1.175 0 0 0-.437-1.615l-6.44-3.68v-5.317l1.728.988a1.196 1.196 0 0 0 1.631-.433 1.175 1.175 0 0 0-.437-1.614l-2.923-1.67v-5.319l5.247 3zM189.744 88.21a1.195 1.195 0 0 0-1.446.862l-2.215 8.86-2.49-12.823a1.19 1.19 0 0 0-1.142-.958 1.194 1.194 0 0 0-1.19.897l-2.216 8.865-2.496-12.826a1.193 1.193 0 0 0-1.398-.937 1.182 1.182 0 0 0-.947 1.384l3.523 18.104c.106.545.58.944 1.14.958a1.192 1.192 0 0 0 1.191-.897l2.215-8.862 2.491 12.822a1.19 1.19 0 0 0 1.173.959c.547 0 1.027-.37 1.159-.898l3.52-14.08a1.18 1.18 0 0 0-.872-1.43z"/>
            <circle cx="406" cy="89" r="89" fill="#14E1A8" opacity=".2"/>
            <g>
                <path fill="#FFF" d="M378 89l11 6v18l-12-7z"/>
                <path fill="#15E1A7" d="M427.318 92.027L380.682 65.15a1.132 1.132 0 0 0-1.13 0l-19.984 11.517c-.35.201-.565.573-.565.976L359 96.84c0 .403.215.775.565.977l46.636 26.875a1.13 1.13 0 0 0 1.13 0l19.987-11.515c.35-.2.565-.573.565-.976V93.003c0-.403-.215-.775-.565-.976zM375.684 104.5l-14.424-8.312V94.95l14.424 8.314v1.236zm0-3.84l-14.424-8.314v-1.233l14.424 8.313v1.233zm0-3.838L361.26 88.51v-1.235l14.423 8.313v1.235zm0-3.84l-14.423-8.312v-1.234l14.423 8.312v1.235zm0-3.839l-14.422-8.312v-1.234l14.422 8.312v1.234zm-13.292-11.5l17.725-10.214 14.391 8.294-17.772 10.187-14.344-8.266zm26.589 34.52l-11.037-6.36V89.211l11.037 6.361v16.59zm-9.982-24.949l17.772-10.187 11.048 6.367-17.91 10.11-10.91-6.29zm26.637 34.547l-14.395-8.296v-1.235l14.395 8.297v1.234zm0-3.838l-14.395-8.298v-1.233l14.395 8.296v1.235zm0-3.84l-14.395-8.296v-1.234l14.395 8.296v1.235zm0-3.838l-14.395-8.297v-1.234l14.395 8.296v1.235zm0-3.84l-14.395-8.296v-1.234l14.395 8.297v1.233zm1.13-3.187l-14.585-8.406 17.91-10.11 14.402 8.3-17.727 10.216zm18.857 8.33l-17.727 10.213v-1.234l17.727-10.216v1.237zm0-3.842l-17.727 10.216v-1.234l17.727-10.217v1.235zm0-3.84l-17.727 10.217v-1.234l17.727-10.215v1.233zm0-3.837l-17.727 10.215v-1.234l17.727-10.215v1.234zm0-3.839l-17.727 10.215v-1.233l17.727-10.216v1.234z"/>
                <path fill="#FFF" d="M379 87l18-10 12 6-19 11z"/>
            </g>
            <g>
                <path fill="#FFF" d="M414 64l8 4v12l-8-4.375zM415 64l11.4-7 8.6 4-13 7z"/>
                <path fill="#15E1A7" d="M445.647 66.71l-29.112-16.617a.712.712 0 0 0-.706 0l-12.475 7.12a.696.696 0 0 0-.352.605L403 69.686c0 .25.134.48.353.604l29.112 16.617a.711.711 0 0 0 .705 0l12.477-7.12a.696.696 0 0 0 .353-.604V67.314c0-.25-.134-.48-.353-.604zm-32.232 7.713l-9.004-5.14v-.765l9.004 5.14v.765zm0-2.375l-9.004-5.14v-.762l9.004 5.14v.762zm0-2.373l-9.004-5.14v-.762l9.004 5.14v.762zm0-2.373l-9.003-5.14V61.4l9.003 5.14v.763zm0-2.374l-9.003-5.14v-.762l9.003 5.139v.763zm-8.297-7.11l11.064-6.316 8.984 5.128-11.095 6.3-8.953-5.112zm16.597 21.343l-6.89-3.933V64.97l6.89 3.933v10.258zm-6.231-15.426l11.095-6.298 6.896 3.936-11.18 6.25-6.811-3.888zm16.629 21.36l-8.987-5.13v-.763l8.987 5.13v.763zm0-2.373l-8.987-5.13v-.763l8.987 5.13v.763zm0-2.374l-8.987-5.13v-.763l8.987 5.13v.763zm0-2.373l-8.987-5.13v-.763l8.987 5.13v.763zm0-2.374l-8.987-5.13v-.763l8.987 5.13v.763zm.705-1.97l-9.105-5.198 11.18-6.25 8.991 5.131-11.066 6.316zm11.771 5.15l-11.066 6.314v-.763l11.066-6.317v.766zm0-2.376l-11.066 6.317v-.764l11.066-6.316v.763zm0-2.374l-11.066 6.317v-.763l11.066-6.316v.762zm0-2.372l-11.066 6.315v-.763l11.066-6.316v.764zm0-2.374l-11.066 6.316v-.763l11.066-6.316v.763z"/>
            </g>
        </g>
    </g>
</svg>
